<svg xmlns="http://www.w3.org/2000/svg" width="13.725" height="11.794" viewBox="0 0 13.725 11.794">
  <g id="Group_593" data-name="Group 593" transform="translate(-17.899 -22.417)">
    <path id="Path_1267" data-name="Path 1267" d="M29.623,24.441s0-.007-.007-.011-.007,0-.01-.007a6.841,6.841,0,0,0-4.843-2.006h0a6.84,6.84,0,0,0-4.836,2s-.011.006-.016.01-.006.011-.01.016a6.856,6.856,0,0,0,.01,9.689.279.279,0,0,0,.192.078.267.267,0,0,0,.19-.082l.778-.813a.267.267,0,0,0-.386-.37l-.585.611a6.278,6.278,0,0,1-1.658-4.01h.845a.267.267,0,1,0,0-.534H18.44A6.3,6.3,0,0,1,20.1,25l.6.6a.267.267,0,0,0,.378-.378l-.6-.6a6.3,6.3,0,0,1,4.012-1.664V23.8a.267.267,0,0,0,.534,0v-.844a6.3,6.3,0,0,1,4.012,1.665l-.6.592a.267.267,0,1,0,.376.38h0l.6-.594a6.3,6.3,0,0,1,1.664,4.011h-.844a.267.267,0,0,0,0,.534h.845a6.278,6.278,0,0,1-1.658,4.01l-.585-.611a.267.267,0,0,0-.386.37h0l.778.813a.268.268,0,0,0,.19.083h0a.267.267,0,0,0,.189-.078,6.856,6.856,0,0,0,.009-9.691Z" fill="#26aee4"/>
    <path id="Path_1268" data-name="Path 1268" d="M39.694,44.8a1.177,1.177,0,0,0,.812-2.032,37.152,37.152,0,0,0-3.388-1.947.267.267,0,0,0-.354.373,37.126,37.126,0,0,0,2.119,3.282A1.173,1.173,0,0,0,39.694,44.8Zm.444-1.644a.644.644,0,0,1-.886.933h0a24.587,24.587,0,0,1-1.531-2.341A24.63,24.63,0,0,1,40.138,43.153Z" transform="translate(-14.803 -14.443)" fill="#26aee4"/>
  </g>
</svg>
