<svg xmlns="http://www.w3.org/2000/svg" width="13.208" height="13.209" viewBox="0 0 13.208 13.209">
  <g id="Group_591" data-name="Group 591" transform="translate(-9.49 -10.65)">
    <path id="Path_1263" data-name="Path 1263" d="M63.17,59.814H59.125a.478.478,0,0,0-.089.009c-.015,0-.029.008-.043.013l-.046.014a.454.454,0,0,0-.047.025c-.011.006-.023.011-.033.018a.474.474,0,0,0-.131.131c-.007.011-.012.023-.019.035a.45.45,0,0,0-.025.047.412.412,0,0,0-.015.047c0,.014-.009.027-.012.041a.491.491,0,0,0-.009.092h0v4.041a.473.473,0,0,0,.947,0v-2.9l2.821,2.822a.473.473,0,0,0,.675-.664l-.006-.006-2.821-2.822h2.9a.473.473,0,0,0,0-.947Z" transform="translate(-41.196 -41.194)" fill="#26aee4" stroke="#e5eaee" stroke-width="0.5"/>
    <path id="Path_1264" data-name="Path 1264" d="M58.661,15.509c0,.014.008.027.012.041a.41.41,0,0,0,.015.047.449.449,0,0,0,.025.047c.006.012.011.024.019.035a.474.474,0,0,0,.131.131c.011.007.022.012.034.018a.453.453,0,0,0,.047.025l.047.015c.014,0,.027.009.042.012a.468.468,0,0,0,.093.009h4.041a.473.473,0,1,0,0-.947h-2.9L63.09,12.12a.473.473,0,0,0-.67-.67L59.6,14.272v-2.9a.473.473,0,1,0-.947,0v4.042h0A.5.5,0,0,0,58.661,15.509Z" transform="translate(-41.192)" fill="#26aee4" stroke="#e5eaee" stroke-width="0.5"/>
    <path id="Path_1265" data-name="Path 1265" d="M14.255,10.9a.473.473,0,0,0-.473.473v2.9L10.96,11.451a.473.473,0,0,0-.67.67l2.822,2.822h-2.9a.473.473,0,0,0,0,.947h4.042a.468.468,0,0,0,.093-.009c.014,0,.028-.008.042-.012l.047-.015a.453.453,0,0,0,.047-.025c.011-.006.023-.011.034-.018a.474.474,0,0,0,.131-.131c.007-.011.012-.023.019-.035a.449.449,0,0,0,.025-.047.411.411,0,0,0,.015-.047c0-.014.009-.027.012-.041a.492.492,0,0,0,.009-.092h0V11.373a.473.473,0,0,0-.473-.473Z" fill="#26aee4" stroke="#e5eaee" stroke-width="0.5"/>
    <path id="Path_1266" data-name="Path 1266" d="M14.719,60.193c0-.014-.008-.027-.012-.041a.411.411,0,0,0-.015-.047.449.449,0,0,0-.025-.047c-.006-.012-.011-.024-.019-.035a.474.474,0,0,0-.131-.131c-.011-.007-.022-.012-.034-.018a.278.278,0,0,0-.094-.039c-.014,0-.028-.01-.043-.013a.478.478,0,0,0-.089-.009H10.213a.473.473,0,0,0,0,.947h2.9L10.29,63.581a.473.473,0,0,0,.67.67l2.822-2.822v2.9a.473.473,0,0,0,.947,0V60.286h0A.493.493,0,0,0,14.719,60.193Z" transform="translate(0 -41.192)" fill="#26aee4" stroke="#e5eaee" stroke-width="0.5"/>
  </g>
</svg>
