<svg id="Group_1401" data-name="Group 1401" xmlns="http://www.w3.org/2000/svg" width="56.299" height="44.57" viewBox="0 0 56.299 44.57">
  <path id="Path_1045" data-name="Path 1045" d="M68.089-2.5H61.051a1.17,1.17,0,0,1-1.112-.8L59.2-5.524a5.857,5.857,0,0,0-5.564-4.011H42.665A5.853,5.853,0,0,0,37.1-5.526L36.362-3.3a1.175,1.175,0,0,1-1.115.8H28.21A8.219,8.219,0,0,0,20,5.713V26.825a8.22,8.22,0,0,0,8.21,8.21H68.089a8.22,8.22,0,0,0,8.21-8.21V5.713a8.22,8.22,0,0,0-8.21-8.21Zm5.864,29.322a5.873,5.873,0,0,1-5.864,5.864H28.21a5.873,5.873,0,0,1-5.864-5.864V5.713A5.873,5.873,0,0,1,28.21-.152h7.037a3.517,3.517,0,0,0,3.338-2.4l.743-2.229a3.513,3.513,0,0,1,3.336-2.4H53.634a3.515,3.515,0,0,1,3.338,2.406l.741,2.226a3.518,3.518,0,0,0,3.338,2.4h7.037a5.873,5.873,0,0,1,5.864,5.864Zm0,0" transform="translate(-20 9.535)" />
  <path id="Path_1046" data-name="Path 1046" d="M130.075,70.465A14.075,14.075,0,1,0,144.15,84.54a14.089,14.089,0,0,0-14.075-14.075Zm0,25.8A11.729,11.729,0,1,1,141.8,84.54a11.742,11.742,0,0,1-11.729,11.729Zm0,0" transform="translate(-101.925 -58.736)" />
  <path id="Path_1047" data-name="Path 1047" d="M157.383,102.465A9.392,9.392,0,0,0,148,111.848a1.173,1.173,0,0,0,2.346,0,7.046,7.046,0,0,1,7.037-7.037,1.173,1.173,0,0,0,0-2.346Zm0,0" transform="translate(-129.234 -86.044)" />
</svg>
