<svg xmlns="http://www.w3.org/2000/svg" width="13.789" height="8.98" viewBox="0 0 13.789 8.98">
  <g id="Group_1693" data-name="Group 1693" transform="translate(-201.005 -714)">
    <g id="Group_596" data-name="Group 596" transform="translate(187.805 674.42)">
      <path id="Path_1269" data-name="Path 1269" d="M18.845,39.616H15.991a1.427,1.427,0,0,0-1.364,1l-.571,1.792a.151.151,0,0,0,0,.032l-.317.3a1.744,1.744,0,0,0-.539,1.269v3.917a.634.634,0,0,0,.634.634h1.38a.634.634,0,0,0,.634-.634v-.983h6.406v.983a.634.634,0,0,0,.634.634h1.38a.634.634,0,0,0,.634-.634V43.913a1.744,1.744,0,0,0-.412-1.126l-.27-.333a.159.159,0,0,0,0-.048l-.6-1.808a1.427,1.427,0,0,0-1.364-1H19.146M15.5,47.925a.317.317,0,0,1-.317.317H13.818a.317.317,0,0,1-.317-.317v-.983h2Zm8.753.317H22.889a.317.317,0,0,1-.317-.317v-.983h2v.983A.317.317,0,0,1,24.252,48.242Zm.317-4.329v2.7H13.5V44.024a1.427,1.427,0,0,1,.444-1.031l.381-.365h9.594l.317.381A1.427,1.427,0,0,1,24.57,43.913Zm-1.253-3.219.507,1.6h-9.4l.507-1.6a1.11,1.11,0,0,1,1.062-.777h6.264A1.11,1.11,0,0,1,23.317,40.694Z" transform="translate(0 0)" fill="#26aee4"/>
      <path id="Path_1270" data-name="Path 1270" d="M23.022,68.1H22.4a.753.753,0,1,0,0,1.506h.618a.753.753,0,1,0,0-1.506Zm0,1.189H22.4a.436.436,0,1,1,0-.872h.618a.436.436,0,1,1,0,.872Z" transform="translate(-7.11 -23.981)" fill="#26aee4"/>
      <path id="Path_1271" data-name="Path 1271" d="M66.322,68.1H65.7a.753.753,0,0,0,0,1.506h.618a.753.753,0,1,0,0-1.506Zm0,1.189H65.7a.436.436,0,0,1,0-.872h.618a.436.436,0,1,1,0,.872Z" transform="translate(-43.544 -23.981)" fill="#26aee4"/>
    </g>
    <g id="Group_597" data-name="Group 597" transform="translate(213.339 710.56)">
      <path id="Path_1272" data-name="Path 1272" d="M1.191,3.572H.926V11.7h.265Z" transform="translate(0 0.295)" fill="#26aee4"/>
      <path id="Path_1273" data-name="Path 1273" d="M.661,3.44h.794v.853H.661Z" transform="translate(0 0)" fill="#26aee4"/>
      <path id="Path_1274" data-name="Path 1274" d="M.661,5.953h.794V6.81H.661Z" transform="translate(0 5.61)" fill="#26aee4"/>
    </g>
  </g>
</svg>
