<svg xmlns="http://www.w3.org/2000/svg" width="17.079" height="10.785" viewBox="0 0 17.079 10.785">
  <g id="Group_1692" data-name="Group 1692" transform="translate(-196.071 -675.007)">
    <g id="Group_595" data-name="Group 595" transform="translate(192.781 686.453) rotate(-90)">
      <path id="Path_1272" data-name="Path 1272" d="M1.191,3.572H.926V19.5h.265Z" transform="translate(-0.048 0.295)" fill="#26aee4"/>
      <path id="Path_1273" data-name="Path 1273" d="M.661,3.44h.7v.853h-.7Z" transform="translate(0 0)" fill="#26aee4"/>
      <path id="Path_1274" data-name="Path 1274" d="M.661,5.953h.7V6.81h-.7Z" transform="translate(0 13.41)" fill="#26aee4"/>
    </g>
    <path id="Path_1275" data-name="Path 1275" d="M27.906,131.093l-1.348-.615-1.19-1.9a1.874,1.874,0,0,0-1.6-.88H18.7a1.891,1.891,0,0,0-1.5.739l-1.534,2.011-2.565.7A1.5,1.5,0,0,0,12,132.6v.98a1.5,1.5,0,0,0,1.489,1.513h.22a1.909,1.909,0,0,0,3.7,0h5.777a1.909,1.909,0,0,0,3.7,0h.413a1.5,1.5,0,0,0,1.489-1.513v-1.117A1.5,1.5,0,0,0,27.906,131.093ZM16.779,134.6a1.221,1.221,0,1,1-1.221-1.221,1.221,1.221,0,0,1,1.221,1.221Zm9.473,0a1.221,1.221,0,1,1-1.221-1.221,1.221,1.221,0,0,1,1.221,1.221Zm1.84-1.025a.812.812,0,0,1-.8.825h-.364a1.91,1.91,0,0,0-3.8,0H17.453a1.91,1.91,0,0,0-3.8,0h-.172a.812.812,0,0,1-.8-.825v-.98a.81.81,0,0,1,.595-.787l2.679-.732a.336.336,0,0,0,.182-.124l1.6-2.1a1.2,1.2,0,0,1,.956-.468h5.068a1.184,1.184,0,0,1,1.018.557l1.248,1.987a.339.339,0,0,0,.148.131l1.437.657a.81.81,0,0,1,.471.743v1.117Z" transform="translate(184.221 547.458)" fill="#26aee4" stroke="#e5eaee" stroke-width="0.3"/>
  </g>
</svg>
