<svg xmlns="http://www.w3.org/2000/svg" width="22.569" height="19.75" viewBox="0 0 22.569 19.75">
  <g id="Group_1392" data-name="Group 1392" transform="translate(0 -3)">
    <path id="Path_1457" data-name="Path 1457" d="M8.771,16h-1.5a.469.469,0,0,0,0,.938h1.5a.469.469,0,1,0,0-.938Z" transform="translate(-3.609 -6.9)" fill="#fff"/>
    <path id="Path_1458" data-name="Path 1458" d="M19.171,16h-1.5a.469.469,0,0,0,0,.938h1.5a.443.443,0,0,0,.469-.469A.47.47,0,0,0,19.171,16Z" transform="translate(-9.13 -6.9)" fill="#fff"/>
    <path id="Path_1459" data-name="Path 1459" d="M29.471,16h-1.5a.469.469,0,1,0,0,.938h1.5a.469.469,0,1,0,0-.938Z" transform="translate(-14.597 -6.9)" fill="#fff"/>
    <path id="Path_1460" data-name="Path 1460" d="M21.067,9.8H18.534V4.971A1.9,1.9,0,0,0,16.7,3H1.83A1.9,1.9,0,0,0,0,4.971v9.009A1.9,1.9,0,0,0,1.83,15.95h.751v4.223a.466.466,0,0,0,.8.328L8.164,15.95h.8v1.877a1.514,1.514,0,0,0,1.455,1.548h6.1l3.378,3.238s.563.469.8-.328V19.422h.422a1.514,1.514,0,0,0,1.455-1.548V11.352A1.586,1.586,0,0,0,21.067,9.8ZM7.976,15.012a.426.426,0,0,0-.328.141L3.519,19.094V15.528a.443.443,0,0,0-.469-.469H1.83a.99.99,0,0,1-.891-1.032V4.971A.958.958,0,0,1,1.83,3.938H16.751a.99.99,0,0,1,.891,1.032v9.009a.958.958,0,0,1-.891,1.032Zm13.607,2.815a.577.577,0,0,1-.516.61h-.891a.443.443,0,0,0-.469.469v2.252l-2.721-2.581a.426.426,0,0,0-.328-.141h-6.24a.577.577,0,0,1-.516-.61V15.95h6.85a1.927,1.927,0,0,0,1.83-1.971V10.742h2.534a.577.577,0,0,1,.516.61v6.475Z" fill="#fff"/>
  </g>
</svg>
