<svg id="Group_1464" data-name="Group 1464" xmlns="http://www.w3.org/2000/svg" xmlns:xlink="http://www.w3.org/1999/xlink" width="53.16" height="17.992" viewBox="0 0 53.16 17.992">
  <defs>
    <linearGradient id="linear-gradient" x1="0.042" y1="0.704" x2="0.961" y2="0.434" gradientUnits="objectBoundingBox">
      <stop offset="0.05" stop-color="#29abe2"/>
      <stop offset="1" stop-color="#00caff"/>
    </linearGradient>
    <linearGradient id="linear-gradient-2" x1="-2.791" y1="0.73" x2="3.513" y2="0.304" xlink:href="#linear-gradient"/>
    <linearGradient id="linear-gradient-3" x1="-0.613" y1="0.627" x2="1.852" y2="0.28" xlink:href="#linear-gradient"/>
  </defs>
  <path id="Path_99" data-name="Path 99" d="M356.583,772.258" transform="translate(-325.082 -762.811)" fill="#fff"/>
  <g id="Group_98" data-name="Group 98">
    <path id="Path_100" data-name="Path 100" d="M278.931,748.122H268.774a15.642,15.642,0,0,0-31.245,0H227.317a.773.773,0,1,0,0,1.546h10.863v-.006a.746.746,0,0,0,.1.01.772.772,0,0,0,.773-.769,14.1,14.1,0,1,1,28.2,0,.772.772,0,0,0,.773.769c.015,0,.029,0,.044,0h10.863a.773.773,0,0,0,0-1.546Z" transform="translate(-226.544 -733.259)" fill="url(#linear-gradient)"/>
    <path id="Path_101" data-name="Path 101" d="M327.959,771.75h-.011a1.584,1.584,0,0,0-.9,2.892h0l0,0,.028.018q.044.029.09.055l.043.023c.028.015.057.029.087.042l.041.018c.042.017.085.034.129.047l.019.005c.039.011.078.021.118.03l.044.008c.034.006.068.012.1.016l.043,0c.048,0,.1.007.146.007h0c.05,0,.1,0,.149-.008h.013a1.57,1.57,0,0,0,.45-.115l.005,0c.027-.011.053-.025.08-.038s.04-.018.059-.028l.015-.009a1.584,1.584,0,0,0,.648-2.092l4.746-8.134Z" transform="translate(-302.182 -756.926)" fill="url(#linear-gradient-2)"/>
    <path id="Path_102" data-name="Path 102" d="M299.259,745.536a12.065,12.065,0,0,0-12.075,5.956,11.221,11.221,0,0,0-1.452,6.732,13.685,13.685,0,0,1,2.252-6.234,12.585,12.585,0,0,1,11.184-5.513,13.1,13.1,0,0,1,3.247.6,14.641,14.641,0,0,1,3.07,1.405,10.86,10.86,0,0,0-2.853-1.954A11.577,11.577,0,0,0,299.259,745.536Z" transform="translate(-271.347 -742.479)" fill="url(#linear-gradient-3)"/>
  </g>
</svg>
