<svg xmlns="http://www.w3.org/2000/svg" width="339.016" height="54.592" viewBox="0 0 339.016 54.592">
  <g id="Group_1642" data-name="Group 1642" transform="translate(-22.984 -352.054)">
    <path id="Path_884" data-name="Path 884" d="M-1300.726,537.185s55.1,2.032,83.447-.1c0,0-20.218-1.823-83.124-1.446Z" transform="translate(1327.078 -145.804)" fill="#003157" fill-rule="evenodd" style="mix-blend-mode: multiply;isolation: isolate"/>
    <g id="Group_528" data-name="Group 528" transform="translate(22.984 362.521)" opacity="0.42" style="mix-blend-mode: multiply;isolation: isolate">
      <g id="Group_520" data-name="Group 520" transform="translate(31.355 12.089)">
        <path id="Path_886" data-name="Path 886" d="M-1216.119,504.713a25.329,25.329,0,0,1-7.179.1V488.621s4.274-1.028,7.382.114Z" transform="translate(1228.373 -488.196)" fill="#00213b" fill-rule="evenodd"/>
        <ellipse id="Ellipse_2" data-name="Ellipse 2" cx="5.613" cy="8.157" rx="5.613" ry="8.157" transform="translate(5.613 0.341)" fill="#00213b"/>
        <ellipse id="Ellipse_3" data-name="Ellipse 3" cx="5.613" cy="8.157" rx="5.613" ry="8.157" transform="translate(0 0.341)" fill="#00213b"/>
        <ellipse id="Ellipse_4" data-name="Ellipse 4" cx="5.093" cy="7.402" rx="5.093" ry="7.402" transform="translate(0.52 1.097)" fill="#00213b"/>
      </g>
      <path id="Path_887" data-name="Path 887" d="M-1273.83,497.7h-55.512s-2.14-13.816,4.672-15.759,42.377-4.177,50.338,2.147S-1273.83,497.7-1273.83,497.7Z" transform="translate(1332.032 -470.479)" fill="#00213b" fill-rule="evenodd"/>
      <g id="Group_521" data-name="Group 521" transform="translate(74.865 12.089)">
        <path id="Path_888" data-name="Path 888" d="M-1080.236,504.713a25.333,25.333,0,0,1-7.179.1V488.621s4.274-1.028,7.382.114Z" transform="translate(1092.49 -488.196)" fill="#00213b" fill-rule="evenodd"/>
        <ellipse id="Ellipse_5" data-name="Ellipse 5" cx="5.613" cy="8.157" rx="5.613" ry="8.157" transform="translate(5.613 0.341)" fill="#00213b"/>
        <ellipse id="Ellipse_6" data-name="Ellipse 6" cx="5.613" cy="8.157" rx="5.613" ry="8.157" transform="translate(0 0.341)" fill="#00213b"/>
        <ellipse id="Ellipse_7" data-name="Ellipse 7" cx="5.093" cy="7.402" rx="5.093" ry="7.402" transform="translate(0.52 1.097)" fill="#00213b"/>
      </g>
      <g id="Group_523" data-name="Group 523" transform="translate(42.563 12.089)">
        <path id="Path_889" data-name="Path 889" d="M-1181.117,504.713a25.334,25.334,0,0,1-7.179.1V488.621s4.274-1.028,7.382.114Z" transform="translate(1193.371 -488.196)" fill="#00213b" fill-rule="evenodd"/>
        <ellipse id="Ellipse_8" data-name="Ellipse 8" cx="5.613" cy="8.157" rx="5.613" ry="8.157" transform="translate(5.613 0.341)" fill="#00213b"/>
        <ellipse id="Ellipse_9" data-name="Ellipse 9" cx="5.613" cy="8.157" rx="5.613" ry="8.157" transform="translate(0 0.341)" fill="#00213b"/>
        <ellipse id="Ellipse_10" data-name="Ellipse 10" cx="5.093" cy="7.402" rx="5.093" ry="7.402" transform="translate(0.52 1.097)" fill="#00213b"/>
        <g id="Group_522" data-name="Group 522" transform="translate(1.443 2.341)" opacity="0.5" style="mix-blend-mode: multiply;isolation: isolate">
          <path id="Path_890" data-name="Path 890" d="M-1189.573,495.87c.089-.6,1.261-.272,1.261-.272s1.171-.332,1.261.272,1.317,4.617.816,4.617S-1189.663,496.474-1189.573,495.87Z" transform="translate(1192.797 -495.508)" fill="#00213b" fill-rule="evenodd"/>
          <path id="Path_891" data-name="Path 891" d="M-1176.894,501.176c.432-.2.8,1.338.8,1.338s.8,1.2.456,1.61-1.264,1.42-1.515.834S-1177.326,501.373-1176.894,501.176Z" transform="translate(1184.448 -499.349)" fill="#00213b" fill-rule="evenodd"/>
          <path id="Path_892" data-name="Path 892" d="M-1175.744,517.159c.342.406-.456,1.61-.456,1.61s-.373,1.536-.8,1.339-.5-3.2-.254-3.783S-1176.086,516.753-1175.744,517.159Z" transform="translate(1184.522 -509.538)" fill="#00213b" fill-rule="evenodd"/>
          <path id="Path_893" data-name="Path 893" d="M-1187.273,523.029c-.089.6-1.261.272-1.261.272s-1.171.332-1.261-.272,2.837-4.617,3.338-4.617S-1187.183,522.426-1187.273,523.029Z" transform="translate(1192.948 -511.078)" fill="#00213b" fill-rule="evenodd"/>
          <path id="Path_894" data-name="Path 894" d="M-1198.292,519.85c-.432.2-.8-1.338-.8-1.338s-.8-1.2-.456-1.61,5.418-1.42,5.669-.834S-1197.86,519.653-1198.292,519.85Z" transform="translate(1199.638 -509.363)" fill="#00213b" fill-rule="evenodd"/>
          <path id="Path_895" data-name="Path 895" d="M-1199.442,503.866c-.343-.406.456-1.61.456-1.61s.373-1.536.8-1.339,4.658,3.2,4.408,3.783S-1199.1,504.272-1199.442,503.866Z" transform="translate(1199.563 -499.173)" fill="#00213b" fill-rule="evenodd"/>
        </g>
        <path id="Path_896" data-name="Path 896" d="M-1181.386,512.044c0,.7.375,1.259.837,1.259s.837-.564.837-1.259-.375-1.259-.837-1.259S-1181.386,511.349-1181.386,512.044Z" transform="translate(1188.673 -503.552)" fill="#00213b" fill-rule="evenodd"/>
        <ellipse id="Ellipse_11" data-name="Ellipse 11" cx="0.837" cy="1.259" rx="0.837" ry="1.259" transform="translate(7.076 7.233)" fill="#00213b"/>
        <path id="Path_897" data-name="Path 897" d="M-1181.635,512.966c0,.461.248.834.554.834s.554-.373.554-.834-.248-.833-.554-.833S-1181.635,512.506-1181.635,512.966Z" transform="translate(1188.842 -504.468)" fill="#00213b" fill-rule="evenodd"/>
      </g>
      <g id="Group_525" data-name="Group 525" transform="translate(3.209 12.448)">
        <path id="Path_898" data-name="Path 898" d="M-1304.018,505.837a25.324,25.324,0,0,1-7.179.1V489.744s4.274-1.028,7.382.113Z" transform="translate(1316.272 -489.319)" fill="#00213b" fill-rule="evenodd"/>
        <ellipse id="Ellipse_12" data-name="Ellipse 12" cx="5.613" cy="8.157" rx="5.613" ry="8.157" transform="translate(5.613 0.341)" fill="#00213b"/>
        <ellipse id="Ellipse_13" data-name="Ellipse 13" cx="5.613" cy="8.157" rx="5.613" ry="8.157" transform="translate(0 0.341)" fill="#00213b"/>
        <ellipse id="Ellipse_14" data-name="Ellipse 14" cx="5.093" cy="7.402" rx="5.093" ry="7.402" transform="translate(0.52 1.097)" fill="#00213b"/>
        <g id="Group_524" data-name="Group 524" transform="translate(1.443 2.341)" opacity="0.5" style="mix-blend-mode: multiply;isolation: isolate">
          <path id="Path_899" data-name="Path 899" d="M-1312.475,496.994c.089-.6,1.261-.272,1.261-.272s1.171-.332,1.261.272,1.317,4.617.816,4.617S-1312.565,497.6-1312.475,496.994Z" transform="translate(1315.699 -496.631)" fill="#00213b" fill-rule="evenodd"/>
          <path id="Path_900" data-name="Path 900" d="M-1299.8,502.3c.432-.2.8,1.339.8,1.339s.8,1.2.456,1.61-1.264,1.42-1.515.834S-1300.227,502.5-1299.8,502.3Z" transform="translate(1307.349 -500.472)" fill="#00213b" fill-rule="evenodd"/>
          <path id="Path_901" data-name="Path 901" d="M-1298.645,518.283c.342.406-.456,1.61-.456,1.61s-.373,1.536-.8,1.338-.5-3.2-.254-3.783S-1298.988,517.877-1298.645,518.283Z" transform="translate(1307.424 -510.662)" fill="#00213b" fill-rule="evenodd"/>
          <path id="Path_902" data-name="Path 902" d="M-1310.174,524.152c-.09.6-1.261.271-1.261.271s-1.172.332-1.261-.271,2.837-4.617,3.338-4.617S-1310.085,523.549-1310.174,524.152Z" transform="translate(1315.85 -512.201)" fill="#00213b" fill-rule="evenodd"/>
          <path id="Path_903" data-name="Path 903" d="M-1321.194,520.973c-.432.2-.8-1.339-.8-1.339s-.8-1.2-.456-1.61,5.418-1.42,5.669-.834S-1320.762,520.776-1321.194,520.973Z" transform="translate(1322.54 -510.486)" fill="#00213b" fill-rule="evenodd"/>
          <path id="Path_904" data-name="Path 904" d="M-1322.344,504.99c-.342-.406.456-1.61.456-1.61s.373-1.536.8-1.338,4.658,3.2,4.407,3.783S-1322,505.4-1322.344,504.99Z" transform="translate(1322.465 -500.297)" fill="#00213b" fill-rule="evenodd"/>
        </g>
        <ellipse id="Ellipse_15" data-name="Ellipse 15" cx="0.837" cy="1.259" rx="0.837" ry="1.259" transform="translate(7.287 7.233)" fill="#00213b"/>
        <ellipse id="Ellipse_16" data-name="Ellipse 16" cx="0.837" cy="1.259" rx="0.837" ry="1.259" transform="translate(7.076 7.233)" fill="#00213b"/>
        <path id="Path_905" data-name="Path 905" d="M-1304.537,514.09c0,.46.248.833.554.833s.554-.373.554-.833-.248-.834-.554-.834S-1304.537,513.629-1304.537,514.09Z" transform="translate(1311.744 -505.591)" fill="#00213b" fill-rule="evenodd"/>
      </g>
      <path id="Path_906" data-name="Path 906" d="M-1240.317,477.666s.056-9.342-3.52-13.067c0,0-5.593-5.661-23.683-7.077,0,0-13.12-5.539-22.146-6.555s-28.462-1.609-41.351,8.7a21.137,21.137,0,0,1-5.661,2.765,38.025,38.025,0,0,0,.533,13.649l1.77,1.581s-1.523-14.666,6.091-15.161c7.153-.465,8.032,15.161,8.032,15.161h24.652s-1.345-16.214,7.833-15.883c9.26.334,8.9,15.883,8.9,15.883Z" transform="translate(1337.067 -450.443)" fill="#00213b" fill-rule="evenodd"/>
      <path id="Path_907" data-name="Path 907" d="M-1194.509,458.735H-1217.5c-4.468-1.306-7.113-5.257-12.168-6.047,0,0,9.777-1.174,17.427.225A76.869,76.869,0,0,1-1194.509,458.735Z" transform="translate(1264.056 -451.656)" fill="#00213b" fill-rule="evenodd"/>
      <path id="Path_908" data-name="Path 908" d="M-1292.944,462.026h0c8.918-.175,19.526-.639,19.526-.639-2.925-1.44-4.156-3.286-6.945-4.363a16.465,16.465,0,0,0-6.281-.894c-8.233.113-17.478,4.317-18.329,5.5C-1305.331,462.13-1299.61,462.158-1292.944,462.026Z" transform="translate(1315.257 -454.307)" fill="#00213b" fill-rule="evenodd"/>
      <path id="Path_909" data-name="Path 909" d="M-1248.527,483.735s-13.994-7.277-24.387-8.1-12.519.729-24.422.972-18.111.243-18.111.243,4.266-.364,16.229-1.093,17.343-2,27.293-.607C-1261,476.685-1248.527,483.735-1248.527,483.735Z" transform="translate(1322.37 -466.815)" fill="#00213b" fill-rule="evenodd" opacity="0.5" style="mix-blend-mode: multiply;isolation: isolate"/>
      <path id="Path_910" data-name="Path 910" d="M-1118.533,497.529l-2.909-3.427s13.092.951,17.694,1.049,6.2-1.308,6.2-1.308l.538.533a4.647,4.647,0,0,1,.934,3.153s-2.726,3.065-6.35,3.131S-1118.533,497.529-1118.533,497.529Z" transform="translate(1190.486 -479.946)" fill="#00213b" fill-rule="evenodd"/>
      <path id="Path_911" data-name="Path 911" d="M-1119.873,472.552s15.375,2.656,25.056,9.077C-1094.817,481.629-1101.409,473.931-1119.873,472.552Z" transform="translate(1189.419 -465.473)" fill="#00213b" fill-rule="evenodd" opacity="0.5" style="mix-blend-mode: multiply;isolation: isolate"/>
      <path id="Path_912" data-name="Path 912" d="M-1151.216,484.909a42.238,42.238,0,0,0-14.025-4.993s2.363,4.061,6.243,4.407C-1153.965,484.772-1151.216,484.909-1151.216,484.909Z" transform="translate(1220.26 -470.479)" fill="#00213b" fill-rule="evenodd"/>
      <path id="Path_913" data-name="Path 913" d="M-1161.744,480.459s1.566,3.232,4.3,4,8.168.616,8.168.616A41.013,41.013,0,0,0-1161.744,480.459Z" transform="translate(1217.883 -470.848)" fill="#00213b" fill-rule="evenodd"/>
      <path id="Path_914" data-name="Path 914" d="M-1152.075,484.114s-3.6-1.312-5.628-1.007a12.289,12.289,0,0,0,8.037,3.4l-1.811-.092s-5.219-.976-7.162-3.861a14.051,14.051,0,0,1,4.035.6Z" transform="translate(1215.773 -472.265)" fill="#00213b" fill-rule="evenodd"/>
      <path id="Path_915" data-name="Path 915" d="M-1193.369,500.111l1.2-.119s-.124-16.532-10.444-16.532-8.574,16.651-8.574,16.651h1.082s-1.842-15.605,7.436-15.605S-1193.369,500.111-1193.369,500.111Z" transform="translate(1251.571 -472.888)" fill="#00213b" fill-rule="evenodd"/>
      <path id="Path_916" data-name="Path 916" d="M-1315.145,501.6s-1.037-15.948-8.932-15.947c-8.3,0-6.953,15.32-6.953,15.32l.7.627s-.783-15.776,6.4-15.212c7.4.58,7.72,15.212,7.72,15.212Z" transform="translate(1333.018 -474.381)" fill="#00213b" fill-rule="evenodd"/>
      <path id="Path_917" data-name="Path 917" d="M-1096.19,494.652s-.916,1.408-5.907,1.408-17.776-1.134-17.776-1.134l3.053,2.85s10.467,2.473,14.533,2.751,6.949-3.111,6.949-3.111A4.123,4.123,0,0,0-1096.19,494.652Z" transform="translate(1189.419 -480.496)" fill="#00213b" fill-rule="evenodd"/>
      <path id="Path_918" data-name="Path 918" d="M-1047.07,498.079a13.166,13.166,0,0,0-.822-2.937l.634-.491a5.217,5.217,0,0,1,.852,2.764Z" transform="translate(1140.487 -480.496)" fill="#00213b" fill-rule="evenodd"/>
      <path id="Path_919" data-name="Path 919" d="M-1110.258,515.8a88.229,88.229,0,0,1-22.662,0,29.164,29.164,0,0,0-12.223-3.618,9.665,9.665,0,0,0,.752,6.421h34.353S-1110.114,516.9-1110.258,515.8Z" transform="translate(1206.763 -492.414)" fill="#00213b" fill-rule="evenodd"/>
      <path id="Path_920" data-name="Path 920" d="M-1141.963,512.632s-.833,2.664,1.985,5.973h-4.66a8.41,8.41,0,0,1-.753-6.421Z" transform="translate(1207.01 -492.414)" fill="#00213b" fill-rule="evenodd"/>
      <path id="Path_921" data-name="Path 921" d="M-1112.356,502.525s12.078,3.322,15.509,3.093A10.276,10.276,0,0,0-1090.97,503l.742-.234a9.758,9.758,0,0,1-6.468,3.128c-4.039.222-15.014-2.768-15.014-2.768Z" transform="translate(1184.309 -485.848)" fill="#00213b" fill-rule="evenodd"/>
      <path id="Path_922" data-name="Path 922" d="M-1264.283,492.659s-.625-2.588-6.108-3.367-16.348-.587-17.975,0-.473,3.367-.473,3.367-.562-2.626,1.852-2.612,15.021-.474,18.4.2S-1264.283,492.659-1264.283,492.659Z" transform="translate(1304.552 -476.503)" fill="#00213b" fill-rule="evenodd" opacity="0.5" style="mix-blend-mode: multiply;isolation: isolate"/>
      <path id="Path_923" data-name="Path 923" d="M-1261.2,520.036s-1.3,1.367-9.255,1.63-12.35.391-13.4-3.254c0,0,.435,1.673,6.084,2.49S-1264.663,521.6-1261.2,520.036Z" transform="translate(1300.896 -496.648)" fill="#00213b" fill-rule="evenodd" opacity="0.5" style="mix-blend-mode: screen;isolation: isolate"/>
      <path id="Path_924" data-name="Path 924" d="M-1203.9,466.393c-7.181-.32-12.419-2.871-18.8-4.807s-12.252-1.753-14.256-2.163-6.8-5.83-11.63-6.164a29.577,29.577,0,0,0-7.113.152,26.546,26.546,0,0,1,8.332-.23c4.216.624,8.3,5.329,12.168,6.047,0,0,13.849.377,21.8.225,0,0-7.21.445-11.1.481s1.707.123,9.085,2.493S-1208.788,465.758-1203.9,466.393Z" transform="translate(1281.752 -452.15)" fill="#00213b" fill-rule="evenodd" opacity="0.91" style="mix-blend-mode: screen;isolation: isolate"/>
      <path id="Path_925" data-name="Path 925" d="M-1105.86,479.935s-12.418-6.467-21.967-7.335l-4.038.241S-1120.489,473.215-1105.86,479.935Z" transform="translate(1197.572 -465.505)" fill="#00213b" fill-rule="evenodd" opacity="0.5" style="mix-blend-mode: screen;isolation: isolate"/>
      <path id="Path_926" data-name="Path 926" d="M-1295.409,478.779s10.56.119,17.98-.564,13.534-1.375,17.848.2c0,0-6.58-.33-8.632,4.633,0,0-2.157-3.087-9.969-2.8s-14.213.237-15.689.17a8.115,8.115,0,0,1-3.463-1.624Z" transform="translate(1310.057 -468.809)" fill="#00213b" fill-rule="evenodd" opacity="0.5" style="mix-blend-mode: screen;isolation: isolate"/>
      <path id="Path_927" data-name="Path 927" d="M-1192.223,489s-2.167-6.042-8.176-5.908-7.642,6.348-7.642,6.348,1.421-6.641,7.768-6.518A8.386,8.386,0,0,1-1192.223,489Z" transform="translate(1249.356 -472.522)" fill="#00213b" fill-rule="evenodd" opacity="0.5" style="mix-blend-mode: screen;isolation: isolate"/>
      <path id="Path_928" data-name="Path 928" d="M-1314.989,488.073a6.113,6.113,0,0,0-4.782-2.244,6.044,6.044,0,0,0-4.83,2.768,5.81,5.81,0,0,1,4.95-2.94A5.534,5.534,0,0,1-1314.989,488.073Z" transform="translate(1328.593 -474.381)" fill="#00213b" fill-rule="evenodd" opacity="0.5" style="mix-blend-mode: screen;isolation: isolate"/>
      <path id="Path_929" data-name="Path 929" d="M-1155.752,489.688s-7.393-1.224-10.668-2.834-4.362-3.522-7-5.254c0,0,1.509.091,4.06,2.672s9.347,4.652,13.712,4.935c0,0,10.471,3.837,17.532,4.257,4.257.253,7.859-3.224,7.859-3.224l.083.281s-3.9,3.393-8.325,3.407C-1144,493.945-1155.752,489.688-1155.752,489.688Z" transform="translate(1225.82 -471.623)" fill="#00213b" fill-rule="evenodd" opacity="0.5" style="mix-blend-mode: screen;isolation: isolate"/>
      <path id="Path_930" data-name="Path 930" d="M-1258.422,456.125a30.62,30.62,0,0,0-.521,5.8l-1.971.088a41.2,41.2,0,0,1,.742-5.619Z" transform="translate(1285.298 -454.306)" fill="#00213b" fill-rule="evenodd"/>
      <path id="Path_931" data-name="Path 931" d="M-1199.594,458.158s-13.2-7.056-22.368-5.275l.824,3.827-3.134-2.068a18.413,18.413,0,0,0-6.11-2.579s15.316-3.77,35.584,6.1Z" transform="translate(1264.543 -451.063)" fill="#00213b" fill-rule="evenodd" opacity="0.5" style="mix-blend-mode: multiply;isolation: isolate"/>
      <path id="Path_932" data-name="Path 932" d="M-1211.192,470.7l-.114-.963,1.574.9Z" transform="translate(1251.575 -463.559)" fill="#00213b" fill-rule="evenodd" opacity="0.5" style="mix-blend-mode: multiply;isolation: isolate"/>
      <path id="Path_933" data-name="Path 933" d="M-1292.944,462.026h0l1.334-3.894c6.817-2.082,11.247-1.108,11.247-1.108a16.465,16.465,0,0,0-6.281-.894c-8.233.113-17.478,4.317-18.329,5.5C-1305.331,462.13-1299.61,462.158-1292.944,462.026Z" transform="translate(1315.257 -454.307)" fill="#00213b" fill-rule="evenodd" opacity="0.5" style="mix-blend-mode: multiply;isolation: isolate"/>
      <path id="Path_934" data-name="Path 934" d="M-1230.445,467.512l-2.851.117a7.978,7.978,0,0,0-2.886-2.029c-1.6-.562-4.7.533-5.248,1.014s-.413,2.151-.413,2.151,6.348-.255,11.4.024C-1230.445,468.789-1229.853,468.53-1230.445,467.512Z" transform="translate(1272.344 -460.64)" fill="#00213b" fill-rule="evenodd"/>
      <path id="Path_935" data-name="Path 935" d="M-1218.082,475.829s-1.9,1.61-2.125,3.042-.52,3.239-.52,3.239a8.985,8.985,0,0,1-2.825-1.147c-.556-.589.785-3.8,4.885-5.163Z" transform="translate(1259.981 -467.681)" fill="#00213b" fill-rule="evenodd" style="mix-blend-mode: multiply;isolation: isolate"/>
      <path id="Path_936" data-name="Path 936" d="M-1275.733,460.895c-.328,1.331,0,2.556.727,2.735s1.586-.754,1.914-2.085,0-2.556-.727-2.735S-1275.4,459.564-1275.733,460.895Z" transform="translate(1295.459 -456.116)" fill="#00213b" fill-rule="evenodd" opacity="0.2" style="mix-blend-mode: screen;isolation: isolate"/>
      <path id="Path_937" data-name="Path 937" d="M-1251.532,460.895c-.328,1.331,0,2.556.727,2.735s1.586-.754,1.914-2.085,0-2.556-.727-2.735S-1251.2,459.564-1251.532,460.895Z" transform="translate(1279.007 -456.116)" fill="#00213b" fill-rule="evenodd" opacity="0.2" style="mix-blend-mode: screen;isolation: isolate"/>
      <path id="Path_938" data-name="Path 938" d="M-1270.389,465.683c-.153.621.073,1.211.5,1.317s.906-.311,1.058-.932-.073-1.211-.5-1.317S-1270.236,465.062-1270.389,465.683Z" transform="translate(1291.772 -460.158)" fill="#00213b" fill-rule="evenodd" style="mix-blend-mode: screen;isolation: isolate"/>
      <path id="Path_939" data-name="Path 939" d="M-1284.723,467.03c-.074.3.035.587.244.638s.439-.15.513-.452-.035-.587-.244-.638S-1284.649,466.729-1284.723,467.03Z" transform="translate(1301.5 -461.406)" fill="#00213b" fill-rule="evenodd" style="mix-blend-mode: screen;isolation: isolate"/>
      <path id="Path_940" data-name="Path 940" d="M-1147.448,465.012c.538.325,1.073.424,1.195.223s-.216-.629-.754-.953-1.073-.424-1.195-.223S-1147.986,464.687-1147.448,465.012Z" transform="translate(1208.694 -459.628)" fill="#00213b" fill-rule="evenodd" style="mix-blend-mode: screen;isolation: isolate"/>
      <path id="Path_941" data-name="Path 941" d="M-1204.581,460.874c.538.325,1.073.424,1.195.223s-.216-.629-.754-.953-1.073-.424-1.195-.223S-1205.119,460.549-1204.581,460.874Z" transform="translate(1247.533 -456.815)" fill="#00213b" fill-rule="evenodd" style="mix-blend-mode: screen;isolation: isolate"/>
      <path id="Path_942" data-name="Path 942" d="M-1193.213,460.625c1.3.749,2.629.869,2.976.268s-.424-1.694-1.72-2.443-2.629-.869-2.976-.268S-1194.51,459.876-1193.213,460.625Z" transform="translate(1240.502 -455.444)" fill="#00213b" fill-rule="evenodd" style="mix-blend-mode: screen;isolation: isolate"/>
      <path id="Path_943" data-name="Path 943" d="M-1163.034,461.344c1.459.51,2.8.48,2.988-.068s-.836-1.4-2.3-1.914-2.8-.479-2.987.068S-1164.493,460.834-1163.034,461.344Z" transform="translate(1220.336 -456.259)" fill="#00213b" fill-rule="evenodd" opacity="0.3" style="mix-blend-mode: screen;isolation: isolate"/>
      <path id="Path_944" data-name="Path 944" d="M-1093.126,480.7c1.552.382,2.887.381,2.982,0s-1.087-1.005-2.639-1.388-2.888-.381-2.982,0S-1094.678,480.322-1093.126,480.7Z" transform="translate(1173.035 -469.875)" fill="#00213b" fill-rule="evenodd" style="mix-blend-mode: screen;isolation: isolate"/>
      <path id="Path_945" data-name="Path 945" d="M-1135.147,479.891c.844.148,1.557.1,1.594-.111s-.618-.5-1.461-.645-1.557-.1-1.594.111S-1135.99,479.743-1135.147,479.891Z" transform="translate(1200.797 -469.89)" fill="#00213b" fill-rule="evenodd" style="mix-blend-mode: screen;isolation: isolate"/>
      <path id="Path_946" data-name="Path 946" d="M-1098.328,492.5c.844.148,1.557.1,1.594-.111s-.618-.5-1.462-.645-1.557-.1-1.594.111S-1099.172,492.351-1098.328,492.5Z" transform="translate(1175.768 -478.461)" fill="#00213b" fill-rule="evenodd" style="mix-blend-mode: screen;isolation: isolate"/>
      <path id="Path_947" data-name="Path 947" d="M-1107.748,480.362c2.44.6,4.539.6,4.688-.005s-1.709-1.581-4.15-2.182-4.54-.6-4.688,0S-1110.189,479.761-1107.748,480.362Z" transform="translate(1184.004 -468.99)" fill="#00213b" fill-rule="evenodd" opacity="0.3" style="mix-blend-mode: screen;isolation: isolate"/>
      <path id="Path_948" data-name="Path 948" d="M-1183.12,480.121c1.249.307,2.322.306,2.4,0s-.874-.809-2.122-1.116-2.322-.306-2.4,0S-1184.368,479.814-1183.12,480.121Z" transform="translate(1233.86 -469.702)" fill="#00213b" fill-rule="evenodd" style="mix-blend-mode: screen;isolation: isolate"/>
      <path id="Path_949" data-name="Path 949" d="M-1118.539,512.267c2.44.6,4.539.6,4.688-.005s-1.709-1.581-4.15-2.182-4.54-.6-4.688,0S-1120.979,511.666-1118.539,512.267Z" transform="translate(1191.339 -490.679)" fill="#00213b" fill-rule="evenodd" opacity="0.3" style="mix-blend-mode: screen;isolation: isolate"/>
      <path id="Path_950" data-name="Path 950" d="M-1288.3,482.326c1.2-.019,2.171-.276,2.166-.573s-.982-.523-2.183-.5-2.17.276-2.166.573S-1289.5,482.346-1288.3,482.326Z" transform="translate(1305.399 -471.385)" fill="#00213b" fill-rule="evenodd" style="mix-blend-mode: screen;isolation: isolate"/>
      <path id="Path_951" data-name="Path 951" d="M-1334.27,493.759c.04-.34,0-.623-.08-.633s-.185.257-.225.6,0,.623.079.633S-1334.31,494.1-1334.27,493.759Z" transform="translate(1335.384 -479.458)" fill="#00213b" fill-rule="evenodd" style="mix-blend-mode: screen;isolation: isolate"/>
      <path id="Path_952" data-name="Path 952" d="M-1335.539,501.249c0-.771-.155-1.4-.345-1.4s-.346.625-.346,1.4.155,1.4.346,1.4S-1335.539,502.02-1335.539,501.249Z" transform="translate(1336.498 -484.032)" fill="#00213b" fill-rule="evenodd" style="mix-blend-mode: screen;isolation: isolate"/>
      <path id="Path_953" data-name="Path 953" d="M-1302.872,481.673c1.888-.03,3.411-.552,3.4-1.165s-1.549-1.085-3.437-1.054-3.41.552-3.4,1.165S-1304.76,481.7-1302.872,481.673Z" transform="translate(1316.157 -470.164)" fill="#00213b" fill-rule="evenodd" opacity="0.3" style="mix-blend-mode: screen;isolation: isolate"/>
      <ellipse id="Ellipse_17" data-name="Ellipse 17" cx="3.737" cy="6.175" rx="3.737" ry="6.175" transform="translate(56.297 15.338) rotate(-76.164)" fill="#00213b" style="mix-blend-mode: screen;isolation: isolate"/>
      <path id="Path_954" data-name="Path 954" d="M-1253.977,486.481v.348l-2.728.108v-.4Z" transform="translate(1282.437 -474.941)" fill="#00213b" fill-rule="evenodd"/>
      <path id="Path_955" data-name="Path 955" d="M-1285.061,487.193v.348l-2.8.108v-.4Z" transform="translate(1303.613 -475.426)" fill="#00213b" fill-rule="evenodd"/>
      <g id="Group_526" data-name="Group 526" transform="translate(10.21 7.311)" style="mix-blend-mode: multiply;isolation: isolate">
        <path id="Path_956" data-name="Path 956" d="M-1286.761,490.483a22.737,22.737,0,0,1-3.011-.186c-6.053-.813-7.974-2.775-8.053-2.858l-.018-.019,0-.026c-.01-.073-1.005-7.323-3.988-9.441-.138-.127-3.2-2.971-3.348-4.666l.159-.014c.144,1.634,3.258,4.527,3.289,4.556,2.969,2.107,3.965,8.952,4.042,9.516.207.2,2.253,2.028,7.941,2.792,5.729.77,12.823-1.1,13.534-1.29a27.93,27.93,0,0,1,2.644-10.295v-5.065h.16l-.009,5.119a27.774,27.774,0,0,0-2.636,10.3v.06l-.058.016A45.284,45.284,0,0,1-1286.761,490.483Z" transform="translate(1305.182 -473.274)" fill="#00213b"/>
      </g>
      <g id="Group_527" data-name="Group 527" transform="translate(24.716 7.644)" style="mix-blend-mode: multiply;isolation: isolate">
        <path id="Path_957" data-name="Path 957" d="M-1258.093,491.03c-.11-3.6-.353-10.529-.484-10.934a9.052,9.052,0,0,0-1.272-1.739l-.03-.033.013-.043a10.775,10.775,0,0,1,.822-2.009v-1.959h.16v2l-.01.018a10.578,10.578,0,0,0-.806,1.951,8.443,8.443,0,0,1,1.276,1.763c.171.528.479,10.552.492,10.979Z" transform="translate(1259.879 -474.314)" fill="#00213b"/>
      </g>
      <path id="Path_958" data-name="Path 958" d="M-1131.878,525.357l-11.463-.137v.455h11.463Z" transform="translate(1205.373 -501.276)" fill="#00213b" fill-rule="evenodd"/>
      <path id="Path_959" data-name="Path 959" d="M-1130.806,528.573h-11.47l.236.475h11.415Z" transform="translate(1204.649 -503.555)" fill="#00213b" fill-rule="evenodd"/>
      <path id="Path_960" data-name="Path 960" d="M-1038.7,523.483l.22,2.8h-1.642v-2.61Z" transform="translate(1135.204 -500.096)" fill="#00213b" fill-rule="evenodd"/>
      <path id="Path_961" data-name="Path 961" d="M-1042.67,525.22h-2.9v.455h3.05Z" transform="translate(1138.907 -501.276)" fill="#00213b" fill-rule="evenodd"/>
      <rect id="Rectangle_141" data-name="Rectangle 141" width="2.915" height="0.475" transform="translate(93.474 25.017)" fill="#00213b"/>
      <path id="Path_962" data-name="Path 962" d="M-1328.585,473.94s-3.038,3.285-4.174,3.751c-3.248,1.333-3.913,10.642-1.838,15.664l-1.451-1.3a39.137,39.137,0,0,1-.533-13.649,17.355,17.355,0,0,0,3.6-1.515C-1331.2,475.877-1328.585,473.94-1328.585,473.94Z" transform="translate(1336.969 -466.416)" fill="#00213b" fill-rule="evenodd" opacity="0.91" style="mix-blend-mode: screen;isolation: isolate"/>
      <path id="Path_963" data-name="Path 963" d="M-1240.34,476.635h0s0-.021,0-.054c-.017-.4-.045-.9-.091-1.465-.033-.436-.076-.9-.127-1.284h0a28.617,28.617,0,0,0-.858-4.49h0l0-.009c-.017-.06-.036-.12-.053-.181l-.027-.091h0a15.1,15.1,0,0,0-.963-2.462l0,0,0,0a8.847,8.847,0,0,0-1.053-1.639c-.043-.054-.07-.083-.07-.083l-.025-.025c-.073-.084-.145-.17-.222-.249,0,0-5.219-5.281-21.874-6.916l-.282-.027q-.62-.059-1.263-.111l-.065-.006h0a66.921,66.921,0,0,0-20.408-6.3c-.661-.111-1.309-.2-1.937-.275-8.5-.957-26.222-1.534-39.024,7.008l.008-.009-.07.052c-.516.346-1.022.71-1.521,1.086-.863.6-1.924,1.313-2.791,1.81a21.859,21.859,0,0,1-3.614,1.521,38.157,38.157,0,0,0,.5,13.532c.018.075.029.117.029.117l1.067.953h0l.7.627h2.547a4.883,4.883,0,0,0,3.047,1.842h0l.039,0c.078.01.156.019.235.024a27.438,27.438,0,0,0,5.986.006,3.948,3.948,0,0,0,.9-.131l.013,0h0a5.093,5.093,0,0,0,2.557-1.742h15.686a4.7,4.7,0,0,0,2.724,1.483h0l.039,0c.078.01.156.019.235.024a27.466,27.466,0,0,0,5.987.006,3.961,3.961,0,0,0,.9-.131l.013,0h0a4.645,4.645,0,0,0,1.77-.948,4.48,4.48,0,0,0,2.259,1.048h0l.039,0c.078.01.157.019.235.024a27.467,27.467,0,0,0,5.987.006,3.961,3.961,0,0,0,.9-.131l.014,0h0a4.894,4.894,0,0,0,2.234-1.382h20.166a4.7,4.7,0,0,0,2.724,1.483h0l.039,0c.078.01.156.019.235.024a27.467,27.467,0,0,0,5.987.006,3.961,3.961,0,0,0,.9-.131l.014,0h0a4.9,4.9,0,0,0,2.234-1.382h7.4S-1240.314,477.279-1240.34,476.635Z" transform="translate(1337.065 -450.444)" fill="#00213b" fill-rule="evenodd" opacity="0.35" style="mix-blend-mode: screen;isolation: isolate"/>
    </g>
    <g id="Group_546" data-name="Group 546" transform="translate(251.123 355.365)">
      <path id="Path_1008" data-name="Path 1008" d="M-597.589,480.875V444.124l5.242-12.963,14.555-.862-6.044,13.824-1.611,35.546h8.387v.929Z" transform="translate(597.966 -429.594)" fill="#003157" fill-rule="evenodd"/>
      <path id="Path_1009" data-name="Path 1009" d="M-553.945,430.3l.555.614-6.106,13.311-2.1,35.446h8.387v.929l-9.3.13,2.212-36.6Z" transform="translate(574.118 -429.594)" fill="#003157" fill-rule="evenodd"/>
      <path id="Path_1010" data-name="Path 1010" d="M-597.589,444.124h13.444l6.352-13.824-14.555.862Z" transform="translate(597.966 -429.594)" fill="#003157" fill-rule="evenodd" style="mix-blend-mode: screen;isolation: isolate"/>
      <path id="Path_1011" data-name="Path 1011" d="M-557.184,442.387l6.163-13.558-.192-.734-6.282,14.292Z" transform="translate(570.711 -428.095)" fill="#003157" fill-rule="evenodd"/>
      <path id="Path_1012" data-name="Path 1012" d="M-579.268,428.1l-13.657.706-5.839,13.586h13.214Z" transform="translate(598.765 -428.095)" fill="#003157" fill-rule="evenodd"/>
      <path id="Path_1013" data-name="Path 1013" d="M-573.46,431.493l-.43,1.093,7.574-.26.544-1.183Z" transform="translate(581.855 -430.167)" fill="#003157" fill-rule="evenodd" opacity="0.8" style="mix-blend-mode: multiply;isolation: isolate"/>
      <g id="Group_545" data-name="Group 545" transform="translate(2.128 3.429)" opacity="0.5" style="mix-blend-mode: multiply;isolation: isolate">
        <path id="Path_1014" data-name="Path 1014" d="M-572.259,439.332h-9.234l.227-.528h9.234Z" transform="translate(584.895 -438.804)" fill="#003157" fill-rule="evenodd"/>
        <path id="Path_1015" data-name="Path 1015" d="M-576.255,443.458h-7.009l.227-.528h7.009Z" transform="translate(586.099 -441.608)" fill="#003157" fill-rule="evenodd"/>
        <path id="Path_1016" data-name="Path 1016" d="M-575.8,447.583h-9.234l.227-.528h9.234Z" transform="translate(587.303 -444.413)" fill="#003157" fill-rule="evenodd"/>
        <path id="Path_1017" data-name="Path 1017" d="M-577.572,451.708h-9.234l.227-.528h9.234Z" transform="translate(588.507 -447.217)" fill="#003157" fill-rule="evenodd"/>
        <path id="Path_1018" data-name="Path 1018" d="M-582.385,455.833h-6.191l.227-.528h6.191Z" transform="translate(589.71 -450.021)" fill="#003157" fill-rule="evenodd"/>
        <path id="Path_1019" data-name="Path 1019" d="M-581.113,459.958h-9.234l.227-.528h9.234Z" transform="translate(590.914 -452.825)" fill="#003157" fill-rule="evenodd"/>
        <path id="Path_1020" data-name="Path 1020" d="M-587.448,464.083h-4.67l.227-.528h4.67Z" transform="translate(592.118 -455.63)" fill="#003157" fill-rule="evenodd"/>
      </g>
    </g>
    <g id="Group_548" data-name="Group 548" transform="translate(28.803 358.59)">
      <path id="Path_1021" data-name="Path 1021" d="M-1151.659,472.539V448.606l-3.414-8.441-9.478-.561,3.936,9,1.049,23.148h-5.462v.6Z" transform="translate(1165.028 -439.144)" fill="#003157" fill-rule="evenodd"/>
      <path id="Path_1022" data-name="Path 1022" d="M-1164.551,439.6l-.361.4,3.976,8.668,1.371,23.083h-5.462v.6l6.054.084-1.44-23.837Z" transform="translate(1165.028 -439.144)" fill="#003157" fill-rule="evenodd"/>
      <path id="Path_1023" data-name="Path 1023" d="M-1150.647,448.606h-8.755l-4.137-9,9.478.561Z" transform="translate(1164.016 -439.144)" fill="#003157" fill-rule="evenodd" style="mix-blend-mode: screen;isolation: isolate"/>
      <path id="Path_1024" data-name="Path 1024" d="M-1158.541,447.476l-4.013-8.829.125-.478,4.091,9.307Z" transform="translate(1163.346 -438.168)" fill="#003157" fill-rule="evenodd"/>
      <path id="Path_1025" data-name="Path 1025" d="M-1162.163,438.168l8.894.46,3.8,8.848h-8.605Z" transform="translate(1163.08 -438.168)" fill="#003157" fill-rule="evenodd"/>
      <path id="Path_1026" data-name="Path 1026" d="M-1150.214,440.381l.28.711-4.932-.169-.354-.771Z" transform="translate(1158.361 -439.517)" fill="#003157" fill-rule="evenodd" opacity="0.8" style="mix-blend-mode: multiply;isolation: isolate"/>
      <g id="Group_547" data-name="Group 547" transform="translate(3.852 2.233)" opacity="0.5" style="mix-blend-mode: multiply;isolation: isolate">
        <path id="Path_1027" data-name="Path 1027" d="M-1152.852,445.486h6.013l-.148-.344H-1153Z" transform="translate(1153 -445.142)" fill="#003157" fill-rule="evenodd"/>
        <path id="Path_1028" data-name="Path 1028" d="M-1147.174,448.172h4.564l-.148-.344h-4.564Z" transform="translate(1149.14 -446.968)" fill="#003157" fill-rule="evenodd"/>
        <path id="Path_1029" data-name="Path 1029" d="M-1150.545,450.859h6.013l-.148-.344h-6.013Z" transform="translate(1151.432 -448.794)" fill="#003157" fill-rule="evenodd"/>
        <path id="Path_1030" data-name="Path 1030" d="M-1149.392,453.545h6.013l-.148-.344h-6.013Z" transform="translate(1150.648 -450.62)" fill="#003157" fill-rule="evenodd"/>
        <path id="Path_1031" data-name="Path 1031" d="M-1142.052,456.231h4.032l-.148-.344h-4.032Z" transform="translate(1145.658 -452.447)" fill="#003157" fill-rule="evenodd"/>
        <path id="Path_1032" data-name="Path 1032" d="M-1147.086,458.918h6.013l-.148-.344h-6.013Z" transform="translate(1149.08 -454.273)" fill="#003157" fill-rule="evenodd"/>
        <path id="Path_1033" data-name="Path 1033" d="M-1136.652,461.6h3.041l-.148-.344h-3.041Z" transform="translate(1141.987 -456.099)" fill="#003157" fill-rule="evenodd"/>
      </g>
    </g>
    <path id="Path_1034" data-name="Path 1034" d="M-944.872,536.873s70.442,3.049,101.684-.25C-843.188,536.623-877.192,532.23-944.872,536.873Z" transform="translate(1085.17 -145.229)" fill="#003157" fill-rule="evenodd" style="mix-blend-mode: multiply;isolation: isolate"/>
    <g id="Group_556" data-name="Group 556" transform="translate(128.875 352.054)" opacity="0.34" style="mix-blend-mode: multiply;isolation: isolate">
      <path id="Path_1035" data-name="Path 1035" d="M-865.443,438.094l-2.363-2.232a31.651,31.651,0,0,0,2.363-6.971l-2.693-1.489-12.834-1.057c-24.057-11.86-42.944-7.984-42.944-7.984-5.168,2.305-13.786,10.209-13.786,10.209-35,.151-39.961,12.92-39.961,12.92l-2.882,3.759,114.88,9.376C-863.977,448.113-865.443,438.094-865.443,438.094Zm-4.8-7.531-2.856,1.4-4.841-3.381,8.681-.3Z" transform="translate(980.545 -417.756)" fill="#00213b"/>
      <path id="Path_1036" data-name="Path 1036" d="M-651.284,449.911l-12.05-.331-1.516-.924S-655.293,448.483-651.284,449.911Z" transform="translate(765.938 -438.757)" fill="#00213b"/>
      <path id="Path_1037" data-name="Path 1037" d="M-943.878,457.225s-22.1,0-29.581,12.344A82.133,82.133,0,0,1-943.878,457.225Z" transform="translate(975.729 -444.587)" fill="#00213b"/>
      <g id="Group_549" data-name="Group 549" transform="translate(8.414 18.712)">
        <path id="Path_1038" data-name="Path 1038" d="M-936.729,496.576a32.764,32.764,0,0,0,9.069.124v-19.98s-5.4-1.268-9.326.14Z" transform="translate(942.521 -476.194)" fill="#00213b" fill-rule="evenodd"/>
        <ellipse id="Ellipse_18" data-name="Ellipse 18" cx="7.09" cy="10.065" rx="7.09" ry="10.065" transform="translate(0 0.421)" fill="#00213b"/>
        <ellipse id="Ellipse_19" data-name="Ellipse 19" cx="7.09" cy="10.065" rx="7.09" ry="10.065" transform="translate(7.09 0.421)" fill="#00213b"/>
        <ellipse id="Ellipse_20" data-name="Ellipse 20" cx="6.434" cy="9.133" rx="6.434" ry="9.133" transform="translate(7.747 1.353)" fill="#00213b"/>
      </g>
      <g id="Group_550" data-name="Group 550" transform="translate(58.569 18.712)">
        <path id="Path_1039" data-name="Path 1039" d="M-780.093,496.576a32.761,32.761,0,0,0,9.069.124v-19.98s-5.4-1.268-9.326.14Z" transform="translate(785.885 -476.194)" fill="#00213b" fill-rule="evenodd"/>
        <ellipse id="Ellipse_21" data-name="Ellipse 21" cx="7.09" cy="10.065" rx="7.09" ry="10.065" transform="translate(0 0.421)" fill="#00213b"/>
        <ellipse id="Ellipse_22" data-name="Ellipse 22" cx="7.09" cy="10.065" rx="7.09" ry="10.065" transform="translate(7.09 0.421)" fill="#00213b"/>
        <ellipse id="Ellipse_23" data-name="Ellipse 23" cx="6.434" cy="9.133" rx="6.434" ry="9.133" transform="translate(7.747 1.353)" fill="#00213b"/>
      </g>
      <path id="Path_1040" data-name="Path 1040" d="M-842.807,483.264l69.542-.809s4.742-18.477-7.764-20.164-49.076-5.458-56.26-2.5S-842.522,480.456-842.807,483.264Z" transform="translate(886.94 -445.585)" fill="#00213b" fill-rule="evenodd"/>
      <g id="Group_552" data-name="Group 552" transform="translate(40.868 18.357)">
        <path id="Path_1041" data-name="Path 1041" d="M-835.375,495.951a32,32,0,0,0,9.068.126V475.622s-5.4-1.3-9.326.143Z" transform="translate(841.167 -475.086)" fill="#00213b" fill-rule="evenodd"/>
        <ellipse id="Ellipse_24" data-name="Ellipse 24" cx="7.09" cy="10.304" rx="7.09" ry="10.304" transform="translate(0 0.431)" fill="#00213b"/>
        <ellipse id="Ellipse_25" data-name="Ellipse 25" cx="7.09" cy="10.304" rx="7.09" ry="10.304" transform="translate(7.09 0.431)" fill="#00213b"/>
        <ellipse id="Ellipse_26" data-name="Ellipse 26" cx="6.434" cy="9.35" rx="6.434" ry="9.35" transform="translate(7.747 1.385)" fill="#00213b"/>
        <g id="Group_551" data-name="Group 551" transform="translate(8.207 2.958)">
          <path id="Path_1042" data-name="Path 1042" d="M-814.171,484.78c-.113-.762-1.593-.343-1.593-.343s-1.48-.419-1.593.343-1.664,5.833-1.031,5.833S-814.058,485.543-814.171,484.78Z" transform="translate(821.34 -484.322)" fill="#00213b" fill-rule="evenodd" opacity="0.5" style="mix-blend-mode: multiply;isolation: isolate"/>
          <path id="Path_1043" data-name="Path 1043" d="M-825.587,491.482c-.545-.249-1.016,1.691-1.016,1.691s-1.009,1.521-.576,2.034,1.6,1.794,1.914,1.054S-825.042,491.731-825.587,491.482Z" transform="translate(827.288 -489.174)" fill="#00213b" fill-rule="evenodd" opacity="0.5" style="mix-blend-mode: multiply;isolation: isolate"/>
          <path id="Path_1044" data-name="Path 1044" d="M-827.04,511.673c-.433.513.576,2.034.576,2.034s.471,1.94,1.016,1.691.637-4.039.321-4.779S-826.607,511.16-827.04,511.673Z" transform="translate(827.193 -502.046)" fill="#00213b" fill-rule="evenodd" opacity="0.5" style="mix-blend-mode: multiply;isolation: isolate"/>
          <path id="Path_1045" data-name="Path 1045" d="M-817.078,519.088c.113.762,1.593.343,1.593.343s1.48.419,1.593-.343-3.584-5.833-4.216-5.833S-817.191,518.325-817.078,519.088Z" transform="translate(821.15 -503.991)" fill="#00213b" fill-rule="evenodd" opacity="0.5" style="mix-blend-mode: multiply;isolation: isolate"/>
          <path id="Path_1046" data-name="Path 1046" d="M-809.34,515.072c.546.249,1.016-1.691,1.016-1.691s1.009-1.521.576-2.034-6.844-1.794-7.161-1.054S-809.885,514.823-809.34,515.072Z" transform="translate(818.881 -501.824)" fill="#00213b" fill-rule="evenodd" opacity="0.5" style="mix-blend-mode: multiply;isolation: isolate"/>
          <path id="Path_1047" data-name="Path 1047" d="M-807.886,494.88c.433-.513-.576-2.034-.576-2.034s-.471-1.94-1.017-1.691-5.884,4.039-5.568,4.779S-808.319,495.394-807.886,494.88Z" transform="translate(818.976 -488.952)" fill="#00213b" fill-rule="evenodd" opacity="0.5" style="mix-blend-mode: multiply;isolation: isolate"/>
        </g>
        <path id="Path_1048" data-name="Path 1048" d="M-819.726,505.211c0,.879-.473,1.591-1.057,1.591s-1.057-.712-1.057-1.591.473-1.591,1.057-1.591S-819.726,504.332-819.726,505.211Z" transform="translate(831.791 -494.483)" fill="#00213b" fill-rule="evenodd"/>
        <path id="Path_1049" data-name="Path 1049" d="M-818.894,505.211c0,.879-.473,1.591-1.057,1.591s-1.057-.712-1.057-1.591.474-1.591,1.057-1.591S-818.894,504.332-818.894,505.211Z" transform="translate(831.226 -494.483)" fill="#00213b" fill-rule="evenodd"/>
        <path id="Path_1050" data-name="Path 1050" d="M-817.893,506.376c0,.582-.313,1.053-.7,1.053s-.7-.471-.7-1.053.313-1.053.7-1.053S-817.893,505.794-817.893,506.376Z" transform="translate(830.06 -495.641)" fill="#00213b" fill-rule="evenodd"/>
      </g>
      <g id="Group_554" data-name="Group 554" transform="translate(91.137 18.357)">
        <path id="Path_1051" data-name="Path 1051" d="M-678.384,495.951a32,32,0,0,0,9.068.126V475.622s-5.4-1.3-9.326.143Z" transform="translate(684.176 -475.086)" fill="#00213b" fill-rule="evenodd"/>
        <ellipse id="Ellipse_27" data-name="Ellipse 27" cx="7.09" cy="10.304" rx="7.09" ry="10.304" transform="translate(0 0.431)" fill="#00213b"/>
        <ellipse id="Ellipse_28" data-name="Ellipse 28" cx="7.09" cy="10.304" rx="7.09" ry="10.304" transform="translate(7.09 0.431)" fill="#00213b"/>
        <ellipse id="Ellipse_29" data-name="Ellipse 29" cx="6.434" cy="9.35" rx="6.434" ry="9.35" transform="translate(7.747 1.385)" fill="#00213b"/>
        <g id="Group_553" data-name="Group 553" transform="translate(8.207 2.958)" opacity="0.5" style="mix-blend-mode: multiply;isolation: isolate">
          <path id="Path_1052" data-name="Path 1052" d="M-657.181,484.78c-.113-.762-1.593-.343-1.593-.343s-1.48-.419-1.593.343-1.664,5.833-1.031,5.833S-657.067,485.543-657.181,484.78Z" transform="translate(664.349 -484.322)" fill="#00213b" fill-rule="evenodd"/>
          <path id="Path_1053" data-name="Path 1053" d="M-668.6,491.482c-.545-.249-1.016,1.691-1.016,1.691s-1.009,1.521-.576,2.034,1.6,1.794,1.914,1.054S-668.051,491.731-668.6,491.482Z" transform="translate(670.297 -489.174)" fill="#00213b" fill-rule="evenodd"/>
          <path id="Path_1054" data-name="Path 1054" d="M-670.049,511.673c-.433.513.576,2.034.576,2.034s.471,1.94,1.017,1.691.637-4.039.321-4.779S-669.617,511.16-670.049,511.673Z" transform="translate(670.202 -502.046)" fill="#00213b" fill-rule="evenodd"/>
          <path id="Path_1055" data-name="Path 1055" d="M-660.087,519.088c.113.762,1.593.343,1.593.343s1.48.419,1.593-.343-3.583-5.833-4.216-5.833S-660.2,518.325-660.087,519.088Z" transform="translate(664.159 -503.991)" fill="#00213b" fill-rule="evenodd"/>
          <path id="Path_1056" data-name="Path 1056" d="M-652.349,515.072c.545.249,1.016-1.691,1.016-1.691s1.009-1.521.576-2.034-6.844-1.794-7.161-1.054S-652.894,514.823-652.349,515.072Z" transform="translate(661.89 -501.824)" fill="#00213b" fill-rule="evenodd"/>
          <path id="Path_1057" data-name="Path 1057" d="M-650.9,494.88c.433-.513-.576-2.034-.576-2.034s-.471-1.94-1.017-1.691-5.884,4.039-5.568,4.779S-651.328,495.394-650.9,494.88Z" transform="translate(661.985 -488.952)" fill="#00213b" fill-rule="evenodd"/>
        </g>
        <path id="Path_1058" data-name="Path 1058" d="M-662.735,505.211c0,.879-.473,1.591-1.057,1.591s-1.057-.712-1.057-1.591.474-1.591,1.057-1.591S-662.735,504.332-662.735,505.211Z" transform="translate(674.801 -494.483)" fill="#00213b" fill-rule="evenodd"/>
        <path id="Path_1059" data-name="Path 1059" d="M-661.9,505.211c0,.879-.474,1.591-1.057,1.591s-1.057-.712-1.057-1.591.473-1.591,1.057-1.591S-661.9,504.332-661.9,505.211Z" transform="translate(674.235 -494.483)" fill="#00213b" fill-rule="evenodd"/>
        <path id="Path_1060" data-name="Path 1060" d="M-660.9,506.376c0,.582-.314,1.053-.7,1.053s-.7-.471-.7-1.053.313-1.053.7-1.053S-660.9,505.794-660.9,506.376Z" transform="translate(673.069 -495.641)" fill="#00213b" fill-rule="evenodd"/>
      </g>
      <path id="Path_1061" data-name="Path 1061" d="M-979.1,456.8l-1.449-10.259s8.228-13.07,42.845-16.357c0,0,7.572-6.69,14.847-10.016,0,0,33.081-5.512,56.886,19.527,0,0,1.621,10.235.3,16.222h-1.207s1.792-18.082-6.873-18.513c-9.3-.463-8.906,19.173-8.906,19.173h-33.278s-.113-19.9-10.384-19.735c-8.872.146-10.1,19.884-10.1,19.884Z" transform="translate(980.547 -419.043)" fill="#00213b"/>
      <path id="Path_1062" data-name="Path 1062" d="M-808.637,422.874s0,0-.006.006A39.2,39.2,0,0,1-816.025,429a.7.7,0,0,1-.085.052l-.033.018c-.036.024-.061.036-.07.043l0,0c-2.484,1.494-5.244,2.566-7.734,2.18-4.713-.729-14.1-.926-19.234-.978h-.024c-2.141-.021-3.535-.018-3.535-.018a86.68,86.68,0,0,1,13.892-9.614C-818.393,417.875-808.637,422.874-808.637,422.874Z" transform="translate(889.588 -419.165)" fill="#00213b" fill-rule="evenodd"/>
      <path id="Path_1063" data-name="Path 1063" d="M-721.66,438.465a10.948,10.948,0,0,1-5,1.88,60,60,0,0,1-8.326-.067c-4.409-.222-9.4-.583-12.283-.8-1.476-.112-2.4-.188-2.4-.188s1.021-.847,2.4-2.065l0,0c1.309-1.154,2.936-2.639,4.318-4.051a20.836,20.836,0,0,0,2.487-2.909S-729.184,432.486-721.66,438.465Z" transform="translate(823.593 -426.254)" fill="#00213b" fill-rule="evenodd"/>
      <path id="Path_1064" data-name="Path 1064" d="M-980.547,480.716s18,2.043,29.158,0,16.494-9.1,23.34-10.788c0,0-8.047,1.442-9.653,19.521,0,0-27.39,2.32-41.52.643Z" transform="translate(980.547 -453.222)" fill="#00213b" opacity="0.8" style="mix-blend-mode: multiply;isolation: isolate"/>
      <path id="Path_1065" data-name="Path 1065" d="M-979.893,508.248s14.306,1.976,27.361.223l6.34,6.275-4.226.717a236.9,236.9,0,0,1-28.409.328Z" transform="translate(980.102 -479.272)" fill="#00213b" fill-rule="evenodd"/>
      <path id="Path_1066" data-name="Path 1066" d="M-970.779,516.353l-.766-7.41s14.9,1.536,24.688,0l6.34,6.275-3.794.749S-963.994,517.143-970.779,516.353Z" transform="translate(974.428 -479.745)" fill="#00213b" fill-rule="evenodd"/>
      <path id="Path_1067" data-name="Path 1067" d="M-883.923,481.81s6.511-7.29,15.463-9.682a12.61,12.61,0,0,1-3.557,7.05C-875.2,482.317-883.923,481.81-883.923,481.81Z" transform="translate(914.862 -454.718)" fill="#00213b" fill-rule="evenodd"/>
      <path id="Path_1068" data-name="Path 1068" d="M-867.864,472.552c-2,11.2-14.469,9.01-14.469,9.01.337-.358.674-.7,1.014-1.038.2-.194.395-.383.592-.571a32.975,32.975,0,0,1,2.879-2.4c.222-.167.44-.328.659-.48.076-.055.149-.106.224-.158.2-.14.4-.273.6-.407a32.576,32.576,0,0,1,5.336-2.866q.355-.15.674-.273A19.649,19.649,0,0,1-867.864,472.552Z" transform="translate(913.782 -455.006)" fill="#00213b" fill-rule="evenodd"/>
      <path id="Path_1069" data-name="Path 1069" d="M-858.959,475.112q-.319.123-.674.273a3.036,3.036,0,0,1,.613,1.834,3.065,3.065,0,0,1-3.064,3.064,3.062,3.062,0,0,1-2.885-2.031c-.2.134-.4.267-.6.407a3.766,3.766,0,0,0,3.483,2.329,3.768,3.768,0,0,0,3.768-3.768A3.755,3.755,0,0,0-858.959,475.112Z" transform="translate(902.384 -456.746)" fill="#00213b" fill-rule="evenodd"/>
      <path id="Path_1070" data-name="Path 1070" d="M-875.036,486.682c-.219.152-.437.313-.659.48a1.875,1.875,0,0,1,.319,1.051,1.885,1.885,0,0,1-1.886,1.882,1.87,1.87,0,0,1-1.312-.537c-.2.188-.395.377-.592.571a2.693,2.693,0,0,0,1.9.783,2.7,2.7,0,0,0,2.7-2.7A2.677,2.677,0,0,0-875.036,486.682Z" transform="translate(911.629 -464.612)" fill="#00213b" fill-rule="evenodd"/>
      <path id="Path_1071" data-name="Path 1071" d="M-808.637,422.874s0,0-.006.006c-1.664,2.6-6.371,5.514-7.382,6.122a.7.7,0,0,1-.085.052l-.033.018c-.036.024-.061.036-.07.043L-815,425.6c-6.7-5.053-17.916-3.465-17.916-3.465-4.74,1.5-10.273,8.181-10.273,8.181h-.024c-2.141-.021-3.535-.018-3.535-.018a86.68,86.68,0,0,1,13.892-9.614C-818.393,417.875-808.637,422.874-808.637,422.874Z" transform="translate(889.588 -419.165)" fill="#00213b" fill-rule="evenodd" opacity="0.6" style="mix-blend-mode: multiply;isolation: isolate"/>
      <path id="Path_1072" data-name="Path 1072" d="M-749.663,454.067s1.021-.847,2.4-2.065l-.006.009v2.244C-748.743,454.143-749.663,454.067-749.663,454.067Z" transform="translate(823.593 -441.036)" fill="#00213b" fill-rule="evenodd" opacity="0.6" style="mix-blend-mode: multiply;isolation: isolate"/>
      <path id="Path_1073" data-name="Path 1073" d="M-707.387,438.465a10.948,10.948,0,0,1-5,1.88,60,60,0,0,1-8.326-.067c-1.719-4.1-5.827-6.243-7.956-7.111a20.838,20.838,0,0,0,2.487-2.909S-714.911,432.486-707.387,438.465Z" transform="translate(809.32 -426.254)" fill="#00213b" fill-rule="evenodd" opacity="0.6" style="mix-blend-mode: multiply;isolation: isolate"/>
      <path id="Path_1074" data-name="Path 1074" d="M-761.494,462.124s5.012,2.691,6.971,6.442c0,0-2.78-3.866-6.971-3.636s-8.366,4.745-9.443,17.677l-1.98-.1s2.019-12.891.045-14.842-25.966-3.036-31.109,3.753c0,0,.036-7.922-10.424-7.519l.951-.345s14.989.46,29.653.575S-761.494,462.124-761.494,462.124Z" transform="translate(867.604 -447.917)" fill="#00213b" fill-rule="evenodd" opacity="0.5" style="mix-blend-mode: screen;isolation: isolate"/>
      <path id="Path_1075" data-name="Path 1075" d="M-846.743,490.045s.589-20.126,11.306-21.431,11.811,21.208,11.811,21.208h-1.344s-.765-19.735-10.384-19.735-10.1,19.884-10.1,19.884Z" transform="translate(889.588 -452.292)" fill="#00213b" fill-rule="evenodd"/>
      <path id="Path_1076" data-name="Path 1076" d="M-677.427,491.893s-.673-19.183,8.906-19.173c8.6.009,6.873,18.513,6.873,18.513h.711s2.517-19.627-7.87-19.627-9.843,20.288-9.843,20.288Z" transform="translate(775.323 -454.362)" fill="#00213b" fill-rule="evenodd"/>
      <path id="Path_1077" data-name="Path 1077" d="M-835.6,467.812s.749-6.045,15.727-4.629a217.813,217.813,0,0,0,28.772.969,225.309,225.309,0,0,1-25.252-1.314C-829.806,461.343-834.152,463.351-835.6,467.812Z" transform="translate(882.015 -448.07)" fill="#00213b" fill-rule="evenodd" opacity="0.5" style="mix-blend-mode: multiply;isolation: isolate"/>
      <path id="Path_1078" data-name="Path 1078" d="M-769.414,511.918s23.377-.794,25.968-2.131,2.185-7.679,2.185-7.679-.936,5.276-3.582,6.714S-769.414,511.918-769.414,511.918Z" transform="translate(837.02 -475.099)" fill="#00213b" fill-rule="evenodd" opacity="0.5" style="mix-blend-mode: screen;isolation: isolate"/>
      <path id="Path_1079" data-name="Path 1079" d="M-780.35,480.383s18.552-9.474,30.984-3.491c-1.453-3.452-18.247-3.232-25.318-.63C-780.314,478.335-780.35,480.383-780.35,480.383Z" transform="translate(844.454 -456.198)" fill="#00213b" fill-rule="evenodd" opacity="0.5" style="mix-blend-mode: multiply;isolation: isolate"/>
      <path id="Path_1080" data-name="Path 1080" d="M-639.152,457.581a19.419,19.419,0,0,0,2.359-7.212l-2.246-1.046s-.342,1.678-4.494,4.464Z" transform="translate(751.446 -439.216)" fill="#00213b"/>
      <path id="Path_1081" data-name="Path 1081" d="M-656.742,447.041l-12.833-1.076,1.513.866s7.74.083,10.874,1.067A2.587,2.587,0,0,0-656.742,447.041Z" transform="translate(769.15 -436.932)" fill="#00213b"/>
      <path id="Path_1082" data-name="Path 1082" d="M-644.994,453.238s3.152-2.047,3.838-4.185l1.124.087s-.61,2.714-4.494,4.464Z" transform="translate(752.44 -439.032)" fill="#00213b"/>
      <path id="Path_1083" data-name="Path 1083" d="M-952.792,461.693a81.967,81.967,0,0,1,33.957-9.16s17.419.109,23.787,1.075a56.79,56.79,0,0,0-24.31,3.2c-12.534,4.458.164-1.07-1.878-2.306S-940.573,455.617-952.792,461.693Z" transform="translate(961.679 -441.397)" fill="#00213b" opacity="0.5" style="mix-blend-mode: screen;isolation: isolate"/>
      <path id="Path_1084" data-name="Path 1084" d="M-755.858,421.831s11.12,1.59,19.53,5.519a73.252,73.252,0,0,0-29.46-7.7S-759.289,420.381-755.858,421.831Z" transform="translate(834.555 -419.042)" fill="#00213b" opacity="0.5" style="mix-blend-mode: screen;isolation: isolate"/>
      <path id="Path_1085" data-name="Path 1085" d="M-688.829,476.954a3.266,3.266,0,0,1-4.353,1.019c-1.308-.62-1.915-2.709-6.444-2.949a9.522,9.522,0,0,1,4.795.814c2.416,1.132,7.487-.53,7.487-.53Z" transform="translate(789.578 -456.659)" fill="#00213b" opacity="0.5" style="mix-blend-mode: screen;isolation: isolate"/>
      <path id="Path_1086" data-name="Path 1086" d="M-749.372,450.46l3.144.148a9,9,0,0,1,3.182-2.563c1.769-.709,5.187.674,5.788,1.281s.456,2.717.456,2.717-7-.322-12.57.03C-749.372,452.073-750.026,451.746-749.372,450.46Z" transform="translate(823.593 -438.212)" fill="#00213b" fill-rule="evenodd"/>
      <path id="Path_1087" data-name="Path 1087" d="M-747.734,460.967s3.241,1.034,3.53,2.844a22.692,22.692,0,0,1-.19,5.09s2.361,2.548,3.062,1.8-.486-8.059-5.665-9.776Z" transform="translate(822.282 -447.106)" fill="#00213b" fill-rule="evenodd" style="mix-blend-mode: multiply;isolation: isolate"/>
      <path id="Path_1088" data-name="Path 1088" d="M-774.682,532.339s26.147-.954,31.977.649h-31.934Z" transform="translate(840.601 -495.458)" fill="#00213b" fill-rule="evenodd" opacity="0.8" style="mix-blend-mode: multiply;isolation: isolate"/>
      <path id="Path_1089" data-name="Path 1089" d="M-700.118,441.9c.489,1.986,0,3.814-1.085,4.082s-2.367-1.125-2.857-3.111,0-3.814,1.085-4.082S-700.607,439.915-700.118,441.9Z" transform="translate(792.721 -432.032)" fill="#00213b" fill-rule="evenodd" opacity="0.2" style="mix-blend-mode: screen;isolation: isolate"/>
      <path id="Path_1090" data-name="Path 1090" d="M-704.17,449.046c.228.927-.109,1.807-.753,1.965s-1.351-.464-1.579-1.391.109-1.807.753-1.965S-704.4,448.119-704.17,449.046Z" transform="translate(794.301 -438.064)" fill="#00213b" fill-rule="evenodd" style="mix-blend-mode: screen;isolation: isolate"/>
      <path id="Path_1091" data-name="Path 1091" d="M-680.072,451.056c.111.45-.053.876-.365.953s-.655-.225-.765-.674.052-.876.365-.953S-680.183,450.607-680.072,451.056Z" transform="translate(777.078 -439.927)" fill="#00213b" fill-rule="evenodd" style="mix-blend-mode: screen;isolation: isolate"/>
      <path id="Path_1092" data-name="Path 1092" d="M-835.406,443.452c-.7.626-1.455.92-1.689.658s.141-.981.84-1.607,1.455-.921,1.689-.659S-834.707,442.826-835.406,443.452Z" transform="translate(883.077 -434.067)" fill="#00213b" fill-rule="evenodd" style="mix-blend-mode: screen;isolation: isolate"/>
      <ellipse id="Ellipse_30" data-name="Ellipse 30" cx="4.046" cy="1.874" rx="4.046" ry="1.874" transform="translate(66.128 7.176) rotate(-41.851)" fill="#00213b" style="mix-blend-mode: screen;isolation: isolate"/>
      <path id="Path_1093" data-name="Path 1093" d="M-808.04,434.718c-.415.372-.865.547-1,.391s.084-.583.5-.955.865-.547,1-.391S-807.625,434.347-808.04,434.718Z" transform="translate(863.989 -428.599)" fill="#00213b" fill-rule="evenodd" style="mix-blend-mode: screen;isolation: isolate"/>
      <ellipse id="Ellipse_31" data-name="Ellipse 31" cx="1.783" cy="0.669" rx="1.783" ry="0.669" transform="matrix(0.745, -0.667, 0.667, 0.745, 62.505, 7.185)" fill="#00213b" opacity="0.5" style="mix-blend-mode: screen;isolation: isolate"/>
      <path id="Path_1094" data-name="Path 1094" d="M-823.391,434.106c-2,1.153-3.966,1.48-4.4.731s.836-2.291,2.833-3.444,3.966-1.48,4.4-.731S-821.394,432.953-823.391,434.106Z" transform="translate(876.761 -426.256)" fill="#00213b" fill-rule="evenodd" opacity="0.3" style="mix-blend-mode: screen;isolation: isolate"/>
      <path id="Path_1095" data-name="Path 1095" d="M-688.412,440.71a20.007,20.007,0,0,1,.437,6.929l.46-.042a15.411,15.411,0,0,0-.449-6.69Z" transform="translate(781.955 -433.36)" fill="#00213b" fill-rule="evenodd"/>
      <g id="Group_555" data-name="Group 555" transform="translate(66.844 12.954)" opacity="0.5">
        <path id="Path_1096" data-name="Path 1096" d="M-769.014,481.94l0-.081c0-.094-.444-9.517-2.39-13.815l-.011-.025.463-2.133a10.621,10.621,0,0,0-.8-5.689l-.041-.087,7.065-1.9.042.154-6.881,1.853a10.816,10.816,0,0,1,.768,5.7l-.452,2.085c1.853,4.122,2.342,12.835,2.389,13.769,1.32-.073,18.27-1.041,22.083-2.863,3.762-1.8,3.989-11.321,3.843-13.582a16.737,16.737,0,0,0-1.335-4.161l-.007-.033v-1.639h.16v1.621a16.3,16.3,0,0,1,1.342,4.2c.147,2.282-.092,11.9-3.934,13.736-3.977,1.9-22.042,2.873-22.224,2.883Z" transform="translate(771.793 -458.21)" fill="#00213b"/>
      </g>
      <path id="Path_1097" data-name="Path 1097" d="M-923.076,463.166c-1.961.483-3.647.481-3.767,0s1.373-1.27,3.334-1.753,3.647-.481,3.767,0S-921.115,462.684-923.076,463.166Z" transform="translate(944.044 -447.186)" fill="#00213b" fill-rule="evenodd" style="mix-blend-mode: screen;isolation: isolate"/>
      <path id="Path_1098" data-name="Path 1098" d="M-856.21,464.552c-1.006.4-1.9.518-2,.27s.638-.773,1.644-1.171,1.9-.519,2-.27S-855.2,464.154-856.21,464.552Z" transform="translate(897.389 -448.683)" fill="#00213b" fill-rule="evenodd" style="mix-blend-mode: screen;isolation: isolate"/>
      <path id="Path_1099" data-name="Path 1099" d="M-844.679,500.651c-.358,1.021-.852,1.777-1.105,1.688s-.167-.988.19-2.009.853-1.777,1.105-1.689S-844.322,499.63-844.679,500.651Z" transform="translate(889.035 -472.737)" fill="#00213b" fill-rule="evenodd" style="mix-blend-mode: screen;isolation: isolate"/>
      <path id="Path_1100" data-name="Path 1100" d="M-881.382,473.468c-1.392.8-2.71,1.126-2.944.72s.7-1.386,2.1-2.189,2.709-1.126,2.944-.72S-879.99,472.665-881.382,473.468Z" transform="translate(915.16 -454.021)" fill="#00213b" fill-rule="evenodd" style="mix-blend-mode: screen;isolation: isolate"/>
      <path id="Path_1101" data-name="Path 1101" d="M-913.247,462.734c-3.083.759-5.734.756-5.922-.006s2.159-2,5.242-2.756,5.734-.757,5.922.006S-910.164,461.974-913.247,462.734Z" transform="translate(938.83 -446.068)" fill="#00213b" fill-rule="evenodd" opacity="0.3" style="mix-blend-mode: screen;isolation: isolate"/>
      <path id="Path_1102" data-name="Path 1102" d="M-707.965,469.866c-1.5-.208-2.679-.678-2.628-1.05s1.312-.5,2.814-.3,2.68.678,2.628,1.05S-706.461,470.074-707.965,469.866Z" transform="translate(797.034 -452.198)" fill="#00213b" fill-rule="evenodd" style="mix-blend-mode: screen;isolation: isolate"/>
      <path id="Path_1103" data-name="Path 1103" d="M-664.289,467.615c-1.134.28-2.11.279-2.18,0s.795-.735,1.929-1.014,2.111-.278,2.18,0S-663.154,467.336-664.289,467.615Z" transform="translate(767.04 -450.817)" fill="#00213b" fill-rule="evenodd" style="mix-blend-mode: screen;isolation: isolate"/>
      <path id="Path_1104" data-name="Path 1104" d="M-694.262,524.409c-.761.187-1.434.112-1.5-.169s.492-.66,1.253-.848,1.434-.112,1.5.169S-693.5,524.221-694.262,524.409Z" transform="translate(786.957 -489.497)" fill="#00213b" fill-rule="evenodd" style="mix-blend-mode: screen;isolation: isolate"/>
      <path id="Path_1105" data-name="Path 1105" d="M-624.467,482.927c-.051-.429-.006-.788.1-.8s.233.325.285.754.006.788-.1.8S-624.416,483.356-624.467,482.927Z" transform="translate(738.499 -461.514)" fill="#00213b" fill-rule="evenodd" style="mix-blend-mode: screen;isolation: isolate"/>
      <path id="Path_1106" data-name="Path 1106" d="M-623.811,492.389c0-.974.2-1.764.436-1.764s.436.79.436,1.764-.2,1.764-.436,1.764S-623.811,493.363-623.811,492.389Z" transform="translate(738.039 -467.292)" fill="#00213b" fill-rule="evenodd" style="mix-blend-mode: screen;isolation: isolate"/>
      <path id="Path_1107" data-name="Path 1107" d="M-629.307,457c.387-.894.978-1.5,1.319-1.351s.3.992-.085,1.886-.978,1.5-1.319,1.351S-629.694,457.9-629.307,457Z" transform="translate(741.991 -443.502)" fill="#00213b" fill-rule="evenodd" style="mix-blend-mode: screen;isolation: isolate"/>
      <path id="Path_1108" data-name="Path 1108" d="M-696.4,470.828c-2.363-.327-4.192-1.214-4.086-1.98s2.107-1.124,4.47-.8,4.192,1.214,4.086,1.98S-694.04,471.155-696.4,470.828Z" transform="translate(790.167 -451.864)" fill="#00213b" fill-rule="evenodd" opacity="0.3" style="mix-blend-mode: screen;isolation: isolate"/>
      <path id="Path_1109" data-name="Path 1109" d="M-687.047,513.783c-.58,1.005-1.315,1.667-1.641,1.479s-.12-1.156.46-2.161,1.315-1.667,1.641-1.479S-686.467,512.778-687.047,513.783Z" transform="translate(782.248 -481.544)" fill="#00213b" fill-rule="evenodd" opacity="0.3" style="mix-blend-mode: screen;isolation: isolate"/>
      <path id="Path_1110" data-name="Path 1110" d="M-887.842,524.667s10.661-4.092,11.683-4.174,1.477,3.329,1.477,3.329Z" transform="translate(917.526 -487.595)" fill="#00213b" fill-rule="evenodd" opacity="0.5" style="mix-blend-mode: screen;isolation: isolate"/>
      <path id="Path_1111" data-name="Path 1111" d="M-914.734,471s19.316-17,41.163-16.565l2.868.324S-890.981,453.3-914.734,471Z" transform="translate(935.808 -442.681)" fill="#00213b" fill-rule="evenodd" opacity="0.5" style="mix-blend-mode: multiply;isolation: isolate"/>
      <path id="Path_1112" data-name="Path 1112" d="M-971.545,472.359a50.752,50.752,0,0,1,28.968-15.134S-958.5,457.651-971.545,472.359Z" transform="translate(974.428 -444.587)" fill="#00213b" fill-rule="evenodd" opacity="0.5" style="mix-blend-mode: screen;isolation: isolate"/>
      <path id="Path_1113" data-name="Path 1113" d="M-702.091,475.51s3.984.5,5.272,1.427C-696.819,476.938-699.466,478.525-702.091,475.51Z" transform="translate(791.254 -457.017)" fill="#00213b" fill-rule="evenodd"/>
      <path id="Path_1114" data-name="Path 1114" d="M-967.471,509.318l1,7.563h.652l-1.033-7.511Z" transform="translate(971.658 -480)" fill="#00213b" fill-rule="evenodd"/>
      <path id="Path_1115" data-name="Path 1115" d="M-958.493,510l.96,7.535h.614l-.787-7.484Z" transform="translate(965.555 -480.463)" fill="#00213b" fill-rule="evenodd"/>
      <path id="Path_1116" data-name="Path 1116" d="M-949.02,510.544l.689,7.36h.614l-.651-7.36Z" transform="translate(959.115 -480.833)" fill="#00213b" fill-rule="evenodd"/>
      <path id="Path_1117" data-name="Path 1117" d="M-939.617,510.906l.516,7.245h.557l-.442-7.228Z" transform="translate(952.723 -481.079)" fill="#00213b" fill-rule="evenodd"/>
      <path id="Path_1118" data-name="Path 1118" d="M-930.078,510.957l.262,7.228h.638l-.178-7.228Z" transform="translate(946.238 -481.114)" fill="#00213b" fill-rule="evenodd"/>
      <path id="Path_1119" data-name="Path 1119" d="M-922.423,511l.458,7.187h.422l-.159-7.228Z" transform="translate(941.035 -481.114)" fill="#00213b" fill-rule="evenodd"/>
      <path id="Path_1120" data-name="Path 1120" d="M-914.1,510.7l.335,7.1h.335v-7.127Z" transform="translate(935.379 -480.924)" fill="#00213b" fill-rule="evenodd"/>
      <path id="Path_1121" data-name="Path 1121" d="M-903.823,509.862v7.283h.675V509.8Z" transform="translate(928.39 -480.325)" fill="#00213b" fill-rule="evenodd"/>
      <path id="Path_1122" data-name="Path 1122" d="M-896.558,508.993l.364,7.48h.518l-.205-7.529Z" transform="translate(923.452 -479.745)" fill="#00213b" fill-rule="evenodd"/>
      <path id="Path_1123" data-name="Path 1123" d="M-887.767,515.551l.062,5.413h.364l.076-4.916Z" transform="translate(917.476 -484.237)" fill="#00213b" fill-rule="evenodd"/>
    </g>
    <path id="Path_1133" data-name="Path 1133" d="M-522.771,539.68l76.5-.816v3.242S-499.387,545.9-522.771,539.68Z" transform="translate(798.228 -148.031)" fill="#003157" fill-rule="evenodd" style="mix-blend-mode: multiply;isolation: isolate"/>
    <g id="Group_571" data-name="Group 571" transform="translate(272.162 359.134)" opacity="0.41" style="mix-blend-mode: multiply;isolation: isolate">
      <path id="Path_1134" data-name="Path 1134" d="M-370.753,496.516h-51.764s-1.873-12.207,7.61-14.242,34.71-.525,39.794.866S-370.753,496.516-370.753,496.516Z" transform="translate(458.016 -468.022)" fill="#00213b" fill-rule="evenodd"/>
      <g id="Group_563" data-name="Group 563" transform="translate(45.666 16.025)">
        <path id="Path_1135" data-name="Path 1135" d="M-376.405,506.613a25.617,25.617,0,0,0,7.258.1V490.343s-4.322-1.039-7.464.115Z" transform="translate(381.041 -489.913)" fill="#00213b" fill-rule="evenodd"/>
        <ellipse id="Ellipse_43" data-name="Ellipse 43" cx="5.675" cy="8.247" rx="5.675" ry="8.247" transform="translate(0 0.345)" fill="#00213b"/>
        <ellipse id="Ellipse_44" data-name="Ellipse 44" cx="5.675" cy="8.247" rx="5.675" ry="8.247" transform="translate(5.675 0.345)" fill="#00213b"/>
        <ellipse id="Ellipse_45" data-name="Ellipse 45" cx="5.15" cy="7.484" rx="5.15" ry="7.484" transform="translate(6.2 1.109)" fill="#00213b"/>
      </g>
      <g id="Group_565" data-name="Group 565" transform="translate(32.375 16.025)">
        <path id="Path_1136" data-name="Path 1136" d="M-417.915,506.613a25.617,25.617,0,0,0,7.258.1V490.343s-4.322-1.039-7.464.115Z" transform="translate(422.551 -489.913)" fill="#00213b" fill-rule="evenodd"/>
        <ellipse id="Ellipse_46" data-name="Ellipse 46" cx="5.675" cy="8.247" rx="5.675" ry="8.247" transform="translate(0 0.345)" fill="#00213b"/>
        <ellipse id="Ellipse_47" data-name="Ellipse 47" cx="5.675" cy="8.247" rx="5.675" ry="8.247" transform="translate(5.675 0.345)" fill="#00213b"/>
        <ellipse id="Ellipse_48" data-name="Ellipse 48" cx="5.15" cy="7.484" rx="5.15" ry="7.484" transform="translate(6.2 1.109)" fill="#00213b"/>
        <g id="Group_564" data-name="Group 564" transform="translate(6.569 2.367)">
          <path id="Path_1137" data-name="Path 1137" d="M-400.944,497.672c-.09-.61-1.275-.275-1.275-.275s-1.184-.336-1.275.275-1.332,4.669-.825,4.669S-400.854,498.283-400.944,497.672Z" transform="translate(406.682 -497.306)" fill="#00213b" fill-rule="evenodd"/>
          <path id="Path_1138" data-name="Path 1138" d="M-410.081,503.036c-.436-.2-.813,1.353-.813,1.353s-.808,1.217-.461,1.628,1.279,1.436,1.532.843S-409.645,503.236-410.081,503.036Z" transform="translate(411.442 -501.189)" fill="#00213b" fill-rule="evenodd"/>
          <path id="Path_1139" data-name="Path 1139" d="M-411.244,519.2c-.346.411.461,1.628.461,1.628s.377,1.553.813,1.354.51-3.232.257-3.825S-410.9,518.786-411.244,519.2Z" transform="translate(411.366 -511.492)" fill="#00213b" fill-rule="evenodd"/>
          <path id="Path_1140" data-name="Path 1140" d="M-403.27,525.132c.091.61,1.275.275,1.275.275s1.184.336,1.275-.275-2.868-4.669-3.375-4.669S-403.36,524.521-403.27,525.132Z" transform="translate(406.53 -513.048)" fill="#00213b" fill-rule="evenodd"/>
          <path id="Path_1141" data-name="Path 1141" d="M-397.077,521.918c.437.2.814-1.354.814-1.354s.808-1.217.461-1.628-5.478-1.436-5.731-.843S-397.514,521.718-397.077,521.918Z" transform="translate(404.714 -511.314)" fill="#00213b" fill-rule="evenodd"/>
          <path id="Path_1142" data-name="Path 1142" d="M-395.914,505.757c.346-.411-.461-1.628-.461-1.628s-.377-1.553-.814-1.353-4.71,3.232-4.456,3.825S-396.26,506.168-395.914,505.757Z" transform="translate(404.789 -501.012)" fill="#00213b" fill-rule="evenodd"/>
        </g>
        <path id="Path_1143" data-name="Path 1143" d="M-405.39,514.025c0,.7-.379,1.273-.846,1.273s-.846-.57-.846-1.273.379-1.273.846-1.273S-405.39,513.322-405.39,514.025Z" transform="translate(415.047 -505.439)" fill="#00213b" fill-rule="evenodd"/>
        <path id="Path_1144" data-name="Path 1144" d="M-404.724,514.025c0,.7-.379,1.273-.846,1.273s-.846-.57-.846-1.273.379-1.273.846-1.273S-404.724,513.322-404.724,514.025Z" transform="translate(414.595 -505.439)" fill="#00213b" fill-rule="evenodd"/>
        <path id="Path_1145" data-name="Path 1145" d="M-403.923,514.958c0,.466-.251.843-.56.843s-.56-.377-.56-.843.251-.843.56-.843S-403.923,514.492-403.923,514.958Z" transform="translate(413.661 -506.365)" fill="#00213b" fill-rule="evenodd"/>
      </g>
      <g id="Group_566" data-name="Group 566" transform="translate(4.679 16.025)">
        <path id="Path_1146" data-name="Path 1146" d="M-504.407,506.613a25.616,25.616,0,0,0,7.258.1V490.343s-4.321-1.039-7.464.115Z" transform="translate(509.043 -489.913)" fill="#00213b" fill-rule="evenodd"/>
        <ellipse id="Ellipse_49" data-name="Ellipse 49" cx="5.675" cy="8.247" rx="5.675" ry="8.247" transform="translate(0 0.345)" fill="#00213b"/>
        <ellipse id="Ellipse_50" data-name="Ellipse 50" cx="5.675" cy="8.247" rx="5.675" ry="8.247" transform="translate(5.675 0.345)" fill="#00213b"/>
        <ellipse id="Ellipse_51" data-name="Ellipse 51" cx="5.15" cy="7.484" rx="5.15" ry="7.484" transform="translate(6.2 1.109)" fill="#00213b"/>
      </g>
      <g id="Group_568" data-name="Group 568" transform="translate(68.99 16.025)">
        <path id="Path_1147" data-name="Path 1147" d="M-303.564,506.613a25.618,25.618,0,0,0,7.258.1V490.343s-4.321-1.039-7.464.115Z" transform="translate(308.2 -489.913)" fill="#00213b" fill-rule="evenodd"/>
        <ellipse id="Ellipse_52" data-name="Ellipse 52" cx="5.675" cy="8.247" rx="5.675" ry="8.247" transform="translate(0 0.345)" fill="#00213b"/>
        <ellipse id="Ellipse_53" data-name="Ellipse 53" cx="5.675" cy="8.247" rx="5.675" ry="8.247" transform="translate(5.675 0.345)" fill="#00213b"/>
        <ellipse id="Ellipse_54" data-name="Ellipse 54" cx="5.15" cy="7.484" rx="5.15" ry="7.484" transform="translate(6.2 1.109)" fill="#00213b"/>
        <g id="Group_567" data-name="Group 567" transform="translate(6.569 2.367)">
          <path id="Path_1148" data-name="Path 1148" d="M-286.593,497.672c-.091-.61-1.275-.275-1.275-.275s-1.184-.336-1.275.275-1.331,4.669-.825,4.669S-286.5,498.283-286.593,497.672Z" transform="translate(292.331 -497.306)" fill="#00213b" fill-rule="evenodd"/>
          <path id="Path_1149" data-name="Path 1149" d="M-295.731,503.036c-.437-.2-.814,1.353-.814,1.353s-.808,1.217-.461,1.628,1.278,1.436,1.532.843S-295.294,503.236-295.731,503.036Z" transform="translate(297.092 -501.189)" fill="#00213b" fill-rule="evenodd"/>
          <path id="Path_1150" data-name="Path 1150" d="M-296.894,519.2c-.346.411.461,1.628.461,1.628s.377,1.553.814,1.354.51-3.232.257-3.825S-296.548,518.786-296.894,519.2Z" transform="translate(297.016 -511.492)" fill="#00213b" fill-rule="evenodd"/>
          <path id="Path_1151" data-name="Path 1151" d="M-288.92,525.132c.09.61,1.275.275,1.275.275s1.184.336,1.275-.275-2.868-4.669-3.375-4.669S-289.01,524.521-288.92,525.132Z" transform="translate(292.18 -513.048)" fill="#00213b" fill-rule="evenodd"/>
          <path id="Path_1152" data-name="Path 1152" d="M-282.726,521.918c.436.2.813-1.354.813-1.354s.808-1.217.461-1.628-5.478-1.436-5.731-.843S-283.163,521.718-282.726,521.918Z" transform="translate(290.363 -511.314)" fill="#00213b" fill-rule="evenodd"/>
          <path id="Path_1153" data-name="Path 1153" d="M-281.564,505.757c.346-.411-.461-1.628-.461-1.628s-.377-1.553-.813-1.353-4.71,3.232-4.457,3.825S-281.91,506.168-281.564,505.757Z" transform="translate(290.439 -501.012)" fill="#00213b" fill-rule="evenodd"/>
        </g>
        <path id="Path_1154" data-name="Path 1154" d="M-291.04,514.025c0,.7-.379,1.273-.846,1.273s-.846-.57-.846-1.273.379-1.273.846-1.273S-291.04,513.322-291.04,514.025Z" transform="translate(300.697 -505.439)" fill="#00213b" fill-rule="evenodd"/>
        <path id="Path_1155" data-name="Path 1155" d="M-290.374,514.025c0,.7-.379,1.273-.846,1.273s-.846-.57-.846-1.273.379-1.273.846-1.273S-290.374,513.322-290.374,514.025Z" transform="translate(300.245 -505.439)" fill="#00213b" fill-rule="evenodd"/>
        <path id="Path_1156" data-name="Path 1156" d="M-289.573,514.958c0,.466-.251.843-.56.843s-.56-.377-.56-.843.251-.843.56-.843S-289.573,514.492-289.573,514.958Z" transform="translate(299.311 -506.365)" fill="#00213b" fill-rule="evenodd"/>
      </g>
      <path id="Path_1157" data-name="Path 1157" d="M-532.56,468.385a14.44,14.44,0,0,1-.4-5.249c.021-.237,1.008-.4,1.036-.648a33.074,33.074,0,0,1,2.182-8.68s5.177-3.3,19.466-5.106c0,0,8.658-5.529,14.038-7.212,4.377-1.369,30.939-2.38,34.4-.742,5.1,2.415,11.939,11.021,11.939,11.021a19.306,19.306,0,0,1,4.357,1.2,33.087,33.087,0,0,1,2.144,15.417h-2.378s-.652-12.481-6.983-12.481c-6.6,0-8.136,12.481-8.136,12.481h-20.722s-1.9-12.981-8.114-13.082-8.515,13.082-8.515,13.082Z" transform="translate(533.042 -439.89)" fill="#00213b" fill-rule="evenodd"/>
      <path id="Path_1158" data-name="Path 1158" d="M-518.311,487.959s-.135,4.1,1.373,5.743a7.865,7.865,0,0,0,4.486,1.7,35.7,35.7,0,0,0,10.022-1.3,19.363,19.363,0,0,0,6.547-6c-1.618-.535-14,1.87-16.366,1.56C-516.251,489.135-517.138,487.875-518.311,487.959Z" transform="translate(523.036 -472.557)" fill="#00213b" fill-rule="evenodd"/>
      <path id="Path_1159" data-name="Path 1159" d="M-457.884,494.083c2.882-1.99,3.314-3.863,5.259-4.943s7.852-1.236,8.284-.726-3.062,3.968-6.448,4.976S-458.135,494.256-457.884,494.083Z" transform="translate(481.964 -472.678)" fill="#00213b" fill-rule="evenodd"/>
      <path id="Path_1160" data-name="Path 1160" d="M-457.884,494.2c2.8-1.937,3.225-3.76,5.118-4.811s7.642-1.2,8.063-.707-2.98,3.862-6.275,4.843S-458.129,494.367-457.884,494.2Z" transform="translate(481.964 -472.865)" fill="#00213b" fill-rule="evenodd"/>
      <path id="Path_1161" data-name="Path 1161" d="M-461.978,450.431h24.909a64.862,64.862,0,0,1,6.865-7.846s-10.565-.582-17.735.634C-454.047,444.256-461.978,450.431-461.978,450.431Z" transform="translate(484.739 -441.62)" fill="#00213b" fill-rule="evenodd"/>
      <path id="Path_1162" data-name="Path 1162" d="M-348.431,452.723c-.035.421-4.4.534-9.587.463-6.75-.09-17.9-.491-19.675-.93a23.671,23.671,0,0,1,6.519-6.417c1.9-1.177,7.123-1.994,9.517-1.825C-352.276,444.672-348.35,451.754-348.431,452.723Z" transform="translate(427.443 -442.67)" fill="#00213b" fill-rule="evenodd"/>
      <path id="Path_1163" data-name="Path 1163" d="M-517.566,488.109a15.952,15.952,0,0,0,.456,4.267c.566,2.223,4,2.987,4,2.987a8.561,8.561,0,0,1-4.224-1.633c-1.455-1.354-1.07-5.762-1.07-5.762A2.566,2.566,0,0,1-517.566,488.109Z" transform="translate(523.127 -472.566)" fill="#00213b" fill-rule="evenodd"/>
      <path id="Path_1164" data-name="Path 1164" d="M-517.429,493.689l-.885.591a20.765,20.765,0,0,0,6.266,1.248c3.987.267,13.984-.92,13.984-.92l.915-1s-11.37,1.509-14.873,1.282C-515.947,494.639-517.429,493.689-517.429,493.689Z" transform="translate(523.036 -476.402)" fill="#00213b" fill-rule="evenodd"/>
      <path id="Path_1165" data-name="Path 1165" d="M-518.314,495.7v.31a32.6,32.6,0,0,0,7.236,1.367c3.455.094,12.725-1.056,12.725-1.056l.289-.292s-8.953.978-13.122.893A23.1,23.1,0,0,1-518.314,495.7Z" transform="translate(523.036 -477.82)" fill="#00213b" fill-rule="evenodd"/>
      <path id="Path_1166" data-name="Path 1166" d="M-516.608,500.336l-.781.591a16.525,16.525,0,0,0,5.53,1.248c3.518.267,11.932-.866,11.932-.866l1.3-1.05s-10.119,1.509-13.209,1.282C-515.3,501.286-516.608,500.336-516.608,500.336Z" transform="translate(522.408 -480.921)" fill="#00213b" fill-rule="evenodd"/>
      <path id="Path_1167" data-name="Path 1167" d="M-517.389,502.345v.31A25.835,25.835,0,0,0-511,504.022a95.844,95.844,0,0,0,10.523-.96l.552-.335a109.248,109.248,0,0,1-11.171.84A18.3,18.3,0,0,1-517.389,502.345Z" transform="translate(522.408 -482.339)" fill="#00213b" fill-rule="evenodd"/>
      <path id="Path_1168" data-name="Path 1168" d="M-453.572,493.2a18.432,18.432,0,0,0,6.5-1.217,4.436,4.436,0,0,0,2.694-3.548l-1.392.077s.648,1.774-1.975,3.091a11.406,11.406,0,0,1-5.387,1.1Z" transform="translate(479.025 -472.881)" fill="#00213b" fill-rule="evenodd"/>
      <path id="Path_1169" data-name="Path 1169" d="M-439.224,493.71s4.245-1.13,4.945-5.362c0,0,2.02-.159,2.268.272S-434.046,492.441-439.224,493.71Z" transform="translate(469.271 -472.804)" fill="#00213b" fill-rule="evenodd"/>
      <path id="Path_1170" data-name="Path 1170" d="M-424.4,501.084h.7s2.309-12.6,8.153-12.6,7.481,12.6,7.481,12.6h.29S-409.447,488-415.883,488-424.4,501.084-424.4,501.084Z" transform="translate(459.193 -472.589)" fill="#00213b" fill-rule="evenodd"/>
      <path id="Path_1171" data-name="Path 1171" d="M-308.948,501.084h.7s1.97-12.481,7.814-12.481,6.983,12.481,6.983,12.481h.571S-294,488-300.433,488-308.948,501.084-308.948,501.084Z" transform="translate(380.71 -472.589)" fill="#00213b" fill-rule="evenodd"/>
      <path id="Path_1172" data-name="Path 1172" d="M-532.821,511.085a79.992,79.992,0,0,0,28.847,0l1.123-.392s-16.157,2.959-28.934-.256Z" transform="translate(532.898 -487.84)" fill="#00213b" fill-rule="evenodd"/>
      <path id="Path_1173" data-name="Path 1173" d="M-445.822,489.334s1.1,3.18-5.283,3.607a13.894,13.894,0,0,1,2.678-2.758A12.6,12.6,0,0,1-445.822,489.334Z" transform="translate(477.348 -473.494)" fill="#00213b" fill-rule="evenodd"/>
      <path id="Path_1174" data-name="Path 1174" d="M-426.8,500.93s2.165-13.422,8.93-13.082c0,0-7.2-1.844-10.061,13.082Z" transform="translate(461.595 -472.435)" fill="#00213b" fill-rule="evenodd"/>
      <path id="Path_1175" data-name="Path 1175" d="M-414.233,480.191s5.169-2.737,14.707-3.555,31.606,3.555,31.606,3.555S-390.994,475.593-414.233,480.191Z" transform="translate(452.283 -464.793)" fill="#00213b" fill-rule="evenodd" opacity="0.5" style="mix-blend-mode: multiply;isolation: isolate"/>
      <path id="Path_1176" data-name="Path 1176" d="M-374.287,512.38a15.218,15.218,0,0,1,1.242,4.134l18.863-.093a10.781,10.781,0,0,1,1.132-4.387A15.992,15.992,0,0,0-355,515.694s-12.656,1.219-17.4.036A11.723,11.723,0,0,0-374.287,512.38Z" transform="translate(425.127 -488.926)" fill="#00213b" fill-rule="evenodd"/>
      <path id="Path_1177" data-name="Path 1177" d="M-310.435,501.073s2.009-13.159,8.515-13.082c0,0-7.082-.648-9.215,13.082Z" transform="translate(382.198 -472.578)" fill="#00213b" fill-rule="evenodd"/>
      <path id="Path_1178" data-name="Path 1178" d="M-494.7,467.385s-8.994,1.161-15.412,5.954C-510.111,473.339-505.437,468.737-494.7,467.385Z" transform="translate(517.46 -458.573)" fill="#00213b" fill-rule="evenodd"/>
      <path id="Path_1179" data-name="Path 1179" d="M-444.373,473.339s9.641-4.689,19.271-5.954h-3.65S-433.234,467.385-444.373,473.339Z" transform="translate(472.772 -458.573)" fill="#00213b" fill-rule="evenodd" opacity="0.8" style="mix-blend-mode: multiply;isolation: isolate"/>
      <path id="Path_1180" data-name="Path 1180" d="M-526.381,483.33a14.618,14.618,0,0,0,.25,6.4,2.553,2.553,0,0,1-1.951-.757S-527.157,484.571-526.381,483.33Z" transform="translate(529.676 -469.413)" fill="#00213b" fill-rule="evenodd"/>
      <path id="Path_1181" data-name="Path 1181" d="M-526.686,485.275s-.343,3.708.468,5.776c0,0-1.4.035-1.863-.757A35.862,35.862,0,0,1-526.686,485.275Z" transform="translate(529.676 -470.735)" fill="#00213b" fill-rule="evenodd"/>
      <path id="Path_1182" data-name="Path 1182" d="M-533.052,514.47a8.313,8.313,0,0,0,4.018,2.687c2.192.428,15.453.448,17.677,0a14.6,14.6,0,0,0,4.941-2.687s5.961-.723,6.487-.47.658,4.083.658,4.083-26.658.275-33.536-.331A24.229,24.229,0,0,1-533.052,514.47Z" transform="translate(533.062 -490.226)" fill="#00213b" fill-rule="evenodd"/>
      <path id="Path_1183" data-name="Path 1183" d="M-465.4,514.962s-2.731,1.911-3.426,2.437-6.48.691-6.48.691a23.139,23.139,0,0,0,4.953-.954,17.39,17.39,0,0,0,3.2-1.975Z" transform="translate(493.801 -490.916)" fill="#00213b" fill-rule="evenodd"/>
      <path id="Path_1184" data-name="Path 1184" d="M-531.814,516.8v2.14l-.983-.073a18.028,18.028,0,0,1-.245-3.283Z" transform="translate(533.051 -491.337)" fill="#00213b" fill-rule="evenodd"/>
      <path id="Path_1185" data-name="Path 1185" d="M-459.348,451.468a25.334,25.334,0,0,1,13.154-7.491s-5.105-.5-15.784,7.491Z" transform="translate(484.739 -442.657)" fill="#00213b" fill-rule="evenodd" opacity="0.5" style="mix-blend-mode: multiply;isolation: isolate"/>
      <path id="Path_1186" data-name="Path 1186" d="M-416.475,442.834a27.912,27.912,0,0,1,11.528.47l-.525,6.005.882-1.119.534-4.657,3.116.471,1.669-1.661A78.357,78.357,0,0,0-416.475,442.834Z" transform="translate(453.807 -441.377)" fill="#00213b" fill-rule="evenodd" opacity="0.5" style="mix-blend-mode: multiply;isolation: isolate"/>
      <path id="Path_1187" data-name="Path 1187" d="M-334.591,452.723c-.035.421-4.4.534-9.587.463-4.96-6.091-13.019-7.317-13.156-7.347,1.9-1.177,7.123-1.994,9.517-1.825C-338.436,444.672-334.51,451.754-334.591,452.723Z" transform="translate(413.603 -442.67)" fill="#00213b" fill-rule="evenodd" opacity="0.5" style="mix-blend-mode: multiply;isolation: isolate"/>
      <path id="Path_1188" data-name="Path 1188" d="M-332,443.942a63.665,63.665,0,0,1,.345,9.159l.585.014a66.165,66.165,0,0,0-.589-9.142Z" transform="translate(396.38 -442.637)" fill="#00213b" fill-rule="evenodd"/>
      <g id="Group_569" data-name="Group 569" transform="translate(48.793 9.585)" style="mix-blend-mode: multiply;isolation: isolate">
        <path id="Path_1189" data-name="Path 1189" d="M-359.8,486.6h-16.971l-.015-.06c-.6-2.351-1.726-5.706-2.63-8.4a40.709,40.709,0,0,1-1.268-4.06,3.046,3.046,0,0,1,.875-1.717V469.8h.16v2.627l-.022.023c-.009.009-.889.937-.853,1.622.016.309.592,2.027,1.259,4.017.9,2.676,2.012,6,2.618,8.353h16.694c.061-.917.848-9.675,8.717-12,.081-.086.663-.809.691-3.745h.16c-.031,3.247-.729,3.853-.759,3.877l-.028.015c-8.174,2.407-8.622,11.845-8.625,11.94Z" transform="translate(380.681 -469.801)" fill="#00213b"/>
      </g>
      <g id="Group_570" data-name="Group 570" transform="translate(63.773 10.459)" style="mix-blend-mode: multiply;isolation: isolate">
        <path id="Path_1190" data-name="Path 1190" d="M-333.737,488.381l-.16,0c.036-1.267.358-12.392.6-12.864.208-.41.408-.787.456-.876l-.119-2.1.16-.009.122,2.141-.011.02s-.227.426-.465.894C-333.325,475.923-333.6,483.422-333.737,488.381Z" transform="translate(333.897 -472.531)" fill="#00213b"/>
      </g>
      <path id="Path_1191" data-name="Path 1191" d="M-345.4,478.951l4.12.146v.746h-3.857Z" transform="translate(405.493 -466.436)" fill="#00213b" fill-rule="evenodd"/>
      <path id="Path_1192" data-name="Path 1192" d="M-305.281,481.737l3.748.5-.217.359-3.62-.359Z" transform="translate(378.278 -468.33)" fill="#00213b" fill-rule="evenodd"/>
      <path id="Path_1193" data-name="Path 1193" d="M-329.09,443.983s10.438-.569,14.486,8.855l-1.214.075.427-.2S-317.658,445.035-329.09,443.983Z" transform="translate(394.403 -442.66)" fill="#00213b" fill-rule="evenodd"/>
      <path id="Path_1194" data-name="Path 1194" d="M-262.087,480.708s-1.182,0-1.066.757,2.494,3.809,2.494,3.809A43.188,43.188,0,0,0-262.087,480.708Z" transform="translate(349.584 -467.63)" fill="#00213b" fill-rule="evenodd"/>
      <path id="Path_1195" data-name="Path 1195" d="M-355.76,440.578s-4.19.217-7.543.24-13.105-.693-13.105-.693S-360.49,439.309-355.76,440.578Z" transform="translate(426.569 -439.866)" fill="#00213b" fill-rule="evenodd" style="mix-blend-mode: screen;isolation: isolate"/>
      <path id="Path_1196" data-name="Path 1196" d="M-513.88,470.285a36.435,36.435,0,0,0-8.891,3.19s3.724,2.133,10.454,2.143a54.732,54.732,0,0,0,19.366-3.661c4.963-2.077,8.283-3.124,8.283-3.124s-5.611,1.107-11.351,2.86-16.165,1.24-17.206.533,5.353-2.883,5.353-2.883a26.661,26.661,0,0,0-10.244,4.468S-521.344,472.365-513.88,470.285Z" transform="translate(526.066 -459.558)" fill="#00213b" fill-rule="evenodd" opacity="0.5" style="mix-blend-mode: screen;isolation: isolate"/>
      <path id="Path_1197" data-name="Path 1197" d="M-405.65,471.883c-3.375.8-8.109,3.622-7.934,4.513s4.069-2.142,13.606-2.839,27.683,2.336,27.683,2.336a114.575,114.575,0,0,0-18.716-2.769c-8.416-.307-12.185.5-14.64.249S-405.65,471.883-405.65,471.883Z" transform="translate(451.845 -461.631)" fill="#00213b" fill-rule="evenodd" opacity="0.5" style="mix-blend-mode: screen;isolation: isolate"/>
      <path id="Path_1198" data-name="Path 1198" d="M-457.876,500.364c-.528.19,1.752,1.1,5.915.226s5.138-3.284,5.138-3.284a15.78,15.78,0,0,1-5.3,2.447A23.007,23.007,0,0,1-457.876,500.364Z" transform="translate(482.002 -478.914)" fill="#00213b" fill-rule="evenodd" opacity="0.5" style="mix-blend-mode: screen;isolation: isolate"/>
      <path id="Path_1199" data-name="Path 1199" d="M-514.963,505.962s1.213,1.491,4.807,1.987,10-1.609,10-1.609-5.544,1.521-9.573,1.254a9.579,9.579,0,0,1-3.879-1.344Z" transform="translate(520.758 -484.798)" fill="#00213b" fill-rule="evenodd"/>
      <path id="Path_1200" data-name="Path 1200" d="M-515.3,530.907a20.365,20.365,0,0,1,4.752-1.684l9.334.842.542-1.209H-516.37A7.117,7.117,0,0,0-515.3,530.907Z" transform="translate(521.715 -500.361)" fill="#00213b" fill-rule="evenodd" style="mix-blend-mode: multiply;isolation: isolate"/>
      <ellipse id="Ellipse_55" data-name="Ellipse 55" cx="1.624" cy="2.965" rx="1.624" ry="2.965" transform="matrix(0.971, -0.239, 0.239, 0.971, 69.029, 4.069)" fill="#00213b" opacity="0.2" style="mix-blend-mode: screen;isolation: isolate"/>
      <path id="Path_1201" data-name="Path 1201" d="M-341.342,453.794c.392,1.59,0,3.053-.868,3.267s-1.894-.9-2.286-2.49,0-3.052.868-3.267S-341.734,452.2-341.342,453.794Z" transform="translate(404.98 -447.624)" fill="#00213b" fill-rule="evenodd" opacity="0.2" style="mix-blend-mode: screen;isolation: isolate"/>
      <path id="Path_1202" data-name="Path 1202" d="M-315.682,459.513c.183.742-.087,1.446-.6,1.573s-1.081-.372-1.264-1.113.087-1.446.6-1.573S-315.865,458.771-315.682,459.513Z" transform="translate(386.596 -452.451)" fill="#00213b" fill-rule="evenodd" style="mix-blend-mode: screen;isolation: isolate"/>
      <path id="Path_1203" data-name="Path 1203" d="M-296.394,461.122c.089.36-.042.7-.292.762s-.524-.18-.613-.54.042-.7.292-.763S-296.483,460.762-296.394,461.122Z" transform="translate(372.81 -453.942)" fill="#00213b" fill-rule="evenodd" style="mix-blend-mode: screen;isolation: isolate"/>
      <path id="Path_1204" data-name="Path 1204" d="M-361.886,459.769c-.142.342-.45.539-.688.44s-.315-.456-.172-.8.451-.539.688-.44S-361.743,459.427-361.886,459.769Z" transform="translate(417.33 -452.836)" fill="#00213b" fill-rule="evenodd" style="mix-blend-mode: screen;isolation: isolate"/>
      <path id="Path_1205" data-name="Path 1205" d="M-446.3,459.251c-.559.5-1.164.737-1.352.527s.113-.785.672-1.286,1.164-.737,1.352-.527S-445.742,458.75-446.3,459.251Z" transform="translate(475.04 -452.117)" fill="#00213b" fill-rule="evenodd" style="mix-blend-mode: screen;isolation: isolate"/>
      <path id="Path_1206" data-name="Path 1206" d="M-391.063,449.316c-1.332,1.193-2.86,1.661-3.412,1.044s.079-2.084,1.411-3.278,2.86-1.66,3.412-1.043S-389.731,448.123-391.063,449.316Z" transform="translate(438.988 -443.877)" fill="#00213b" fill-rule="evenodd" style="mix-blend-mode: screen;isolation: isolate"/>
      <path id="Path_1207" data-name="Path 1207" d="M-482.243,471.365c-1.57.386-2.92.385-3.015,0s1.1-1.016,2.669-1.4,2.919-.385,3.015,0S-480.674,470.979-482.243,471.365Z" transform="translate(500.569 -460.127)" fill="#00213b" fill-rule="evenodd" style="mix-blend-mode: screen;isolation: isolate"/>
      <path id="Path_1208" data-name="Path 1208" d="M-433.3,473.9c-.8.318-1.522.415-1.6.216s.51-.619,1.316-.937,1.522-.415,1.6-.216S-432.495,473.58-433.3,473.9Z" transform="translate(466.337 -462.293)" fill="#00213b" fill-rule="evenodd" style="mix-blend-mode: screen;isolation: isolate"/>
      <path id="Path_1209" data-name="Path 1209" d="M-474.376,471.018c-2.467.607-4.59.605-4.74-.005s1.728-1.6,4.2-2.206,4.59-.605,4.74.005S-471.908,470.411-474.376,471.018Z" transform="translate(496.395 -459.232)" fill="#00213b" fill-rule="evenodd" opacity="0.3" style="mix-blend-mode: screen;isolation: isolate"/>
      <ellipse id="Ellipse_56" data-name="Ellipse 56" cx="0.544" cy="2.199" rx="0.544" ry="2.199" transform="translate(70.655 12.288) rotate(-82.122)" fill="#00213b" style="mix-blend-mode: screen;isolation: isolate"/>
      <path id="Path_1210" data-name="Path 1210" d="M-255.863,503.067c-.041-.344,0-.63.08-.64s.187.26.228.6,0,.63-.08.64S-255.822,503.41-255.863,503.067Z" transform="translate(344.634 -482.394)" fill="#00213b" fill-rule="evenodd" style="mix-blend-mode: screen;isolation: isolate"/>
      <path id="Path_1211" data-name="Path 1211" d="M-255.338,510.64c0-.78.157-1.412.349-1.412s.349.632.349,1.412-.156,1.412-.349,1.412S-255.338,511.42-255.338,510.64Z" transform="translate(344.266 -487.018)" fill="#00213b" fill-rule="evenodd" style="mix-blend-mode: screen;isolation: isolate"/>
      <path id="Path_1212" data-name="Path 1212" d="M-300.818,477.5c-1.891-.262-3.355-.971-3.271-1.585s1.687-.9,3.578-.638,3.355.972,3.27,1.585S-298.927,477.758-300.818,477.5Z" transform="translate(377.409 -463.87)" fill="#00213b" fill-rule="evenodd" opacity="0.3" style="mix-blend-mode: screen;isolation: isolate"/>
      <path id="Path_1213" data-name="Path 1213" d="M-424.4,452.26c-.332.3-.692.438-.8.313s.067-.467.4-.764.692-.438.8-.313S-424.066,451.963-424.4,452.26Z" transform="translate(459.762 -447.741)" fill="#00213b" fill-rule="evenodd" style="mix-blend-mode: screen;isolation: isolate"/>
      <path id="Path_1214" data-name="Path 1214" d="M-403.821,453.123c-.587.526-1.223.774-1.42.553s.119-.824.706-1.35,1.223-.774,1.42-.553S-403.234,452.6-403.821,453.123Z" transform="translate(446.209 -447.905)" fill="#00213b" fill-rule="evenodd" opacity="0.5" style="mix-blend-mode: screen;isolation: isolate"/>
      <path id="Path_1215" data-name="Path 1215" d="M-436.684,451.77c-1.6.923-3.174,1.185-3.521.586s.669-1.834,2.267-2.756,3.174-1.185,3.521-.586S-435.086,450.847-436.684,451.77Z" transform="translate(469.984 -445.866)" fill="#00213b" fill-rule="evenodd" opacity="0.3" style="mix-blend-mode: screen;isolation: isolate"/>
      <circle id="Ellipse_57" data-name="Ellipse 57" cx="6.204" cy="6.204" r="6.204" transform="translate(20.147 20.138) rotate(-45)" fill="#00213b" style="mix-blend-mode: screen;isolation: isolate"/>
      <path id="Path_1216" data-name="Path 1216" d="M-377.356,463.426l2.516.118a7.2,7.2,0,0,1,2.547-2.052c1.416-.568,4.151.539,4.632,1.026s.365,2.174.365,2.174-5.6-.258-10.061.024C-377.356,464.718-377.879,464.456-377.356,463.426Z" transform="translate(427.372 -454.461)" fill="#00213b" fill-rule="evenodd"/>
      <path id="Path_1217" data-name="Path 1217" d="M-376.757,471.836s1.917,1.628,2.148,3.076.525,3.275.525,3.275a9.085,9.085,0,0,0,2.857-1.16c.561-.595-.794-3.846-4.94-5.22Z" transform="translate(426.806 -461.579)" fill="#00213b" fill-rule="evenodd" style="mix-blend-mode: multiply;isolation: isolate"/>
      <path id="Path_1218" data-name="Path 1218" d="M-444.136,457.51h0l0-.013a33.19,33.19,0,0,0-1.163-3.889c-.075-.207-.148-.4-.219-.562l-.043-.1a19.3,19.3,0,0,0-4.357-1.2s-6.836-8.606-11.939-11.021a11.4,11.4,0,0,0-3.214-.589c-6.361-.6-17.826-.011-17.826-.011h0a110.087,110.087,0,0,0-12.2,1.073c-1.444.105-5.6.865-12.637,5.652-1.562,1.05-2.564,1.829-2.564,1.829a91.169,91.169,0,0,0-10.6,1.922l.022-.006a38.3,38.3,0,0,0-8.28,2.854c-.415.212-.612.336-.612.336a4.328,4.328,0,0,0-.305.623h0c-.128.31-.256.677-.38,1.068-.588,1.826-1.014,3.951-1.014,3.951h0c-.222,1.08-.378,2.1-.482,3.036l-.534.334c-.248.1-.492.2-.5.314-.031.35-.049.685-.059,1.008l-.009-.009a7.2,7.2,0,0,0,0,.753q0,.121.007.24a15.216,15.216,0,0,0,.223,2.217l.013.073h0a8.852,8.852,0,0,0,.226.968h4.864a7.118,7.118,0,0,0,1.066,2.051,5.372,5.372,0,0,0,2.9,2.179h0l.013,0a4,4,0,0,0,.914.133,27.75,27.75,0,0,0,6.053-.005c.079-.005.159-.014.237-.024l.041,0h0a5.55,5.55,0,0,0,3.921-3.123h0l.009-.019a9.27,9.27,0,0,0,.532-1.186l0,0h12a6.393,6.393,0,0,0,3.97,4.23h0l.014,0a3.993,3.993,0,0,0,.914.133,27.751,27.751,0,0,0,6.053-.005c.08-.005.159-.014.237-.025l.04,0h0a5.055,5.055,0,0,0,3.264-2.095,5.271,5.271,0,0,0,2.769,1.993h0l.014,0a3.993,3.993,0,0,0,.914.133,27.751,27.751,0,0,0,6.053-.005c.08-.005.159-.014.237-.024l.041,0h0c1.938-.268,3.59-1.952,4.465-4.331h7.631a6.393,6.393,0,0,0,3.97,4.23h0l.014,0a4,4,0,0,0,.914.133,27.753,27.753,0,0,0,6.053-.005c.079-.005.158-.014.237-.024l.04,0h0c1.938-.268,3.591-1.952,4.465-4.331h4.292A31.367,31.367,0,0,0-444.136,457.51Z" transform="translate(533.061 -439.867)" fill="#00213b" fill-rule="evenodd" opacity="0.5" style="mix-blend-mode: screen;isolation: isolate"/>
    </g>
    <g id="Group_573" data-name="Group 573" transform="translate(333.236 354.914)">
      <path id="Path_1219" data-name="Path 1219" d="M-341.441,466.42V438.754l3.946-9.758,10.957-.649-4.55,10.407-1.213,26.759h6.314v.7Z" transform="translate(341.724 -427.816)" fill="#003157" fill-rule="evenodd"/>
      <path id="Path_1220" data-name="Path 1220" d="M-308.586,428.347l.418.462-4.6,10.02-1.584,26.683h6.314v.7l-7,.1,1.665-27.556Z" transform="translate(323.772 -427.816)" fill="#003157" fill-rule="evenodd"/>
      <path id="Path_1221" data-name="Path 1221" d="M-341.441,438.754h10.121l4.782-10.407-10.957.649Z" transform="translate(341.724 -427.816)" fill="#003157" fill-rule="evenodd" style="mix-blend-mode: screen;isolation: isolate"/>
      <path id="Path_1222" data-name="Path 1222" d="M-311.024,437.447l4.639-10.206-.145-.553-4.729,10.759Z" transform="translate(321.207 -426.688)" fill="#003157" fill-rule="evenodd"/>
      <path id="Path_1223" data-name="Path 1223" d="M-327.649,426.688l-10.281.531-4.4,10.228h9.948Z" transform="translate(342.326 -426.688)" fill="#003157" fill-rule="evenodd"/>
      <path id="Path_1224" data-name="Path 1224" d="M-323.276,429.246l-.324.823,5.7-.2.41-.891Z" transform="translate(329.596 -428.247)" fill="#003157" fill-rule="evenodd" opacity="0.8" style="mix-blend-mode: multiply;isolation: isolate"/>
      <g id="Group_572" data-name="Group 572" transform="translate(1.602 2.581)" opacity="0.5" style="mix-blend-mode: multiply;isolation: isolate">
        <path id="Path_1225" data-name="Path 1225" d="M-322.373,435.147h-6.951l.171-.4h6.951Z" transform="translate(331.885 -434.749)" fill="#003157" fill-rule="evenodd"/>
        <path id="Path_1226" data-name="Path 1226" d="M-325.38,438.253h-5.276l.171-.4h5.276Z" transform="translate(332.791 -436.861)" fill="#003157" fill-rule="evenodd"/>
        <path id="Path_1227" data-name="Path 1227" d="M-325.039,441.358h-6.951l.171-.4h6.951Z" transform="translate(333.697 -438.971)" fill="#003157" fill-rule="evenodd"/>
        <path id="Path_1228" data-name="Path 1228" d="M-326.372,444.463h-6.951l.171-.4h6.951Z" transform="translate(334.603 -441.083)" fill="#003157" fill-rule="evenodd"/>
        <path id="Path_1229" data-name="Path 1229" d="M-329.995,447.569h-4.661l.171-.4h4.661Z" transform="translate(335.51 -443.194)" fill="#003157" fill-rule="evenodd"/>
        <path id="Path_1230" data-name="Path 1230" d="M-329.038,450.674h-6.951l.171-.4h6.951Z" transform="translate(336.416 -445.305)" fill="#003157" fill-rule="evenodd"/>
        <path id="Path_1231" data-name="Path 1231" d="M-333.806,453.779h-3.516l.171-.4h3.516Z" transform="translate(337.322 -447.416)" fill="#003157" fill-rule="evenodd"/>
      </g>
    </g>
  </g>
</svg>
