<svg xmlns="http://www.w3.org/2000/svg" width="21.342" height="18.74" viewBox="0 0 21.342 18.74">
  <g id="Group_519" data-name="Group 519" transform="translate(37.342 -20.1) rotate(90)">
    <g id="Group_516" data-name="Group 516" transform="translate(33.262 16)">
      <path id="Path_881" data-name="Path 881" d="M65.673,28.347V16.783a.783.783,0,0,0-1.567,0V28.347a2.8,2.8,0,0,0-2.006,2.7,2.764,2.764,0,0,0,2.006,2.664v2.852a.783.783,0,0,0,1.567,0V33.706a2.793,2.793,0,0,0,0-5.359Zm-.783,3.886a1.222,1.222,0,1,1,1.222-1.222A1.224,1.224,0,0,1,64.889,32.233Z" transform="translate(-62.1 -16)" fill="#fff"/>
    </g>
    <g id="Group_517" data-name="Group 517" transform="translate(26.994 16)">
      <path id="Path_882" data-name="Path 882" d="M45.673,18.946V16.783a.783.783,0,1,0-1.567,0v2.162a2.8,2.8,0,0,0-2.006,2.7A2.764,2.764,0,0,0,44.106,24.3V36.558a.783.783,0,1,0,1.567,0V24.3a2.793,2.793,0,0,0,0-5.359Zm-.783,3.886a1.222,1.222,0,1,1,1.222-1.222A1.224,1.224,0,0,1,44.889,22.832Z" transform="translate(-42.1 -16)" fill="#fff"/>
    </g>
    <g id="Group_518" data-name="Group 518" transform="translate(20.1 16)">
      <path id="Path_883" data-name="Path 883" d="M23.673,24.587v-7.8a.783.783,0,0,0-1.567,0v7.8a2.8,2.8,0,0,0-2.006,2.7,2.764,2.764,0,0,0,2.006,2.664v6.612a.783.783,0,0,0,1.567,0V29.946a2.793,2.793,0,0,0,0-5.359Zm-.783,3.886a1.222,1.222,0,1,1,1.222-1.222A1.224,1.224,0,0,1,22.889,28.473Z" transform="translate(-20.1 -16)" fill="#fff"/>
    </g>
  </g>
</svg>
