<svg xmlns="http://www.w3.org/2000/svg" width="9.226" height="14.841" viewBox="0 0 9.226 14.841">
  <path id="Path_1262" data-name="Path 1262" d="M15.7,7V21.841h.645V13.95a4.372,4.372,0,0,0,1.489.248,10.65,10.65,0,0,0,2.558-.423c1.412-.352,2.745-.686,4.068-.024l.467.233V7.769l-.178-.089c-1.537-.768-3.05-.389-4.513-.024a5.885,5.885,0,0,1-3.89.105V7Zm4.692,1.281a5.882,5.882,0,0,1,3.889-.107v4.8a6.8,6.8,0,0,0-4.046.175,5.883,5.883,0,0,1-3.89.108v-4.8A6.805,6.805,0,0,0,20.394,8.281Z" transform="translate(-15.702 -7)" fill="#26aee4"/>
</svg>
