<svg xmlns="http://www.w3.org/2000/svg" width="23.814" height="14.073" viewBox="0 0 23.814 14.073">
  <path id="Path_2715" data-name="Path 2715" d="M25.785,31.571a3.131,3.131,0,1,0-4.022,0,4.656,4.656,0,0,0-1.495,1.145,6.015,6.015,0,0,0-1.789-.994,3.938,3.938,0,1,0-3.941,0,6.02,6.02,0,0,0-1.789.994,4.661,4.661,0,0,0-1.5-1.145,3.131,3.131,0,1,0-4.022,0A4.648,4.648,0,0,0,4.6,35.755a1.026,1.026,0,0,0,1.027,1.027h4.89a5.862,5.862,0,0,0-.038.639,1.028,1.028,0,0,0,1.028,1.028h10a1.028,1.028,0,0,0,1.028-1.028,6.07,6.07,0,0,0-.038-.639h4.889a1.027,1.027,0,0,0,1.028-1.027A4.648,4.648,0,0,0,25.785,31.571Zm-4.115-2.4a2.1,2.1,0,1,1,2.1,2.1A2.1,2.1,0,0,1,21.67,29.172ZM13.6,28.313a2.911,2.911,0,1,1,2.911,2.912A2.912,2.912,0,0,1,13.6,28.313Zm-6.459.859a2.1,2.1,0,1,1,2.1,2.1A2.1,2.1,0,0,1,7.139,29.172Zm-1.51,6.582A3.613,3.613,0,0,1,12,33.424a6.008,6.008,0,0,0-1.285,2.331ZM21.51,37.421h-10a5.154,5.154,0,0,1,.042-.639,4.965,4.965,0,0,1,1.021-2.442,5.049,5.049,0,0,1,.76-.781,5,5,0,0,1,6.356,0,5.074,5.074,0,0,1,.76.781,4.972,4.972,0,0,1,1.021,2.442A5.107,5.107,0,0,1,21.51,37.421Zm.789-1.666a6.023,6.023,0,0,0-1.285-2.331,3.613,3.613,0,0,1,6.375,2.331Z" transform="translate(-4.602 -24.375)" fill="#ebebeb"/>
</svg>
