<svg xmlns="http://www.w3.org/2000/svg" width="97.76" height="83.877" viewBox="0 0 97.76 83.877">
  <g id="Group_1635" data-name="Group 1635" transform="translate(0.092)">
    <path id="Path_2716" data-name="Path 2716" d="M57.09,41.4c8.341,5.252,14.52,18.227,15.447,33.675-13.593,11.74-33.983,11.74-47.268,0,.618-15.447,6.8-28.423,15.138-33.675l8.341,10.2Zm-8.341-27.8A12.791,12.791,0,0,1,61.724,26.26,13.054,13.054,0,0,1,48.749,39.235,12.791,12.791,0,0,1,36.082,26.26,12.528,12.528,0,0,1,48.749,13.593ZM83.041,27.8c14.52,9.268,26.26,40.471-5.87,42.634C75.936,59.008,71.3,46.032,62.033,38.926a18.646,18.646,0,0,0,4.943-10.2L74.7,38ZM74.7,0A13.054,13.054,0,0,1,87.675,12.975c0,10.813-12.667,16.683-21.008,10.2a17.9,17.9,0,0,0-4.943-9.577C61.724,6.179,67.285,0,74.7,0ZM35.464,38.926C26.2,46.032,21.871,59.008,20.635,70.438-11.8,68.276-.064,37.073,14.765,27.8L23.107,38l7.724-9.268A18.213,18.213,0,0,0,35.464,38.926ZM23.107,0A12.756,12.756,0,0,1,35.773,13.593a17.9,17.9,0,0,0-4.943,9.577,12.841,12.841,0,0,1-20.7-10.2A13.054,13.054,0,0,1,23.107,0Z" transform="translate(0 0)" fill="#000f1e"/>
  </g>
</svg>
