<svg xmlns="http://www.w3.org/2000/svg" width="16.703" height="10.19" viewBox="0 0 16.703 10.19">
  <g id="Group_612" data-name="Group 612" transform="translate(-97.445 -753.027)">
    <path id="Path_1278" data-name="Path 1278" d="M25.753,130.634l-1.165-.532-1.029-1.641a1.62,1.62,0,0,0-1.382-.761H17.795a1.635,1.635,0,0,0-1.3.639l-1.326,1.739-2.218.607A1.3,1.3,0,0,0,12,131.936v.847a1.3,1.3,0,0,0,1.287,1.308h.19a1.651,1.651,0,0,0,3.2,0h4.995a1.651,1.651,0,0,0,3.2,0h.357a1.3,1.3,0,0,0,1.287-1.308v-.966A1.3,1.3,0,0,0,25.753,130.634Zm-9.621,3.036a1.055,1.055,0,1,1-1.055-1.055,1.056,1.056,0,0,1,1.055,1.055Zm8.191,0a1.055,1.055,0,1,1-1.055-1.055,1.056,1.056,0,0,1,1.055,1.055Zm1.591-.886a.7.7,0,0,1-.693.714h-.315a1.651,1.651,0,0,0-3.282,0H16.715a1.651,1.651,0,0,0-3.282,0h-.149a.7.7,0,0,1-.693-.714v-.847a.7.7,0,0,1,.514-.681l2.316-.633a.29.29,0,0,0,.158-.107l1.385-1.817a1.041,1.041,0,0,1,.827-.4h4.382a1.024,1.024,0,0,1,.88.482l1.079,1.718a.293.293,0,0,0,.128.113l1.243.568a.7.7,0,0,1,.407.642v.966Z" transform="translate(85.595 625.478)" fill="#26aee4" stroke="#e5eaee" stroke-width="0.3"/>
    <line id="Line_6" data-name="Line 6" x2="14.699" transform="translate(97.5 762.968)" fill="none" stroke="#26aee4" stroke-width="0.5"/>
    <g id="Group_611" data-name="Group 611" transform="translate(112.965 759.021)">
      <g id="Group_610" data-name="Group 610" transform="translate(0 0)">
        <g id="Group_606" data-name="Group 606" transform="translate(0.506 1.771)">
          <path id="Path_1279" data-name="Path 1279" d="M295.032,336.328A.032.032,0,0,1,295,336.3v-1.265a.032.032,0,1,1,.063,0V336.3A.032.032,0,0,1,295.032,336.328Z" transform="translate(-295 -335)" fill="#26aee4" stroke="#26aee4" stroke-width="0.2"/>
        </g>
        <g id="Group_607" data-name="Group 607" transform="translate(0 2.53)">
          <path id="Path_1280" data-name="Path 1280" d="M215.537,455.57a.032.032,0,0,1-.022-.009l-.506-.506a.032.032,0,0,1,.045-.045l.484.484.484-.484a.032.032,0,0,1,.045.045l-.506.506A.031.031,0,0,1,215.537,455.57Z" transform="translate(-214.999 -455)" fill="#26aee4" stroke="#26aee4" stroke-width="0.2"/>
        </g>
        <g id="Group_608" data-name="Group 608" transform="translate(0.506 0)">
          <path id="Path_1281" data-name="Path 1281" d="M295.032,56.328A.032.032,0,0,1,295,56.3V55.032a.032.032,0,0,1,.063,0V56.3A.032.032,0,0,1,295.032,56.328Z" transform="translate(-295 -55)" fill="#26aee4" stroke="#26aee4" stroke-width="0.2"/>
        </g>
        <g id="Group_609" data-name="Group 609" transform="translate(0 0)">
          <path id="Path_1282" data-name="Path 1282" d="M216.044,55.569a.031.031,0,0,1-.022-.009l-.484-.484-.484.484a.032.032,0,0,1-.045-.045l.506-.506a.032.032,0,0,1,.045,0l.506.506a.032.032,0,0,1-.022.054Z" transform="translate(-215 -55)" fill="#26aee4" stroke="#26aee4" stroke-width="0.2"/>
        </g>
      </g>
    </g>
  </g>
</svg>
