<svg xmlns="http://www.w3.org/2000/svg" width="20.856" height="18.249" viewBox="0 0 20.856 18.249">
  <g id="Group_1385" data-name="Group 1385" transform="translate(-105 -253.89)">
    <path id="Path_808" data-name="Path 808" d="M296.943,349.89l0,4.56a.651.651,0,0,0,.191.461l3.262,3.261.922-.922-3.071-3.07,0-4.29Zm0,0" transform="translate(-181.516 -90.786)" fill="#fff"/>
    <path id="Path_809" data-name="Path 809" d="M116.732,253.89a9.131,9.131,0,0,0-9.02,7.821H105l3.259,3.259,3.259-3.259h-2.489a7.808,7.808,0,1,1,1.536,6.114l-1.027.8a9.125,9.125,0,1,0,7.195-14.737Zm0,0" fill="#fff"/>
  </g>
</svg>
