<svg xmlns="http://www.w3.org/2000/svg" width="15.095" height="19.148" viewBox="0 0 15.095 19.148">
  <path id="Path_1247" data-name="Path 1247" d="M30.746,13.147l.034-.577c-.068-.437-1.447-.091-1.772-.087a2.113,2.113,0,0,0-.084-.7,5.872,5.872,0,0,0-.734-.849,2.825,2.825,0,0,1-.51-1.989,7.439,7.439,0,0,1,1.1.438c.215.115.077.073.218.237.441.123.957.05.956-.488,0-.387-.4-.62-.644-.881-.342-.365.059-.267-.538-.933L28.439,6.9c-.091-.2.039-.329-.163-.538-.246.176-.158.4-.435.345-.586-.143-1.865-.361-2.373.238,0,0,.506-.242.466-.1-.025.082-1.24.581-1.608,1.153-.258.4.214.328-.654,1.278a1.5,1.5,0,0,0,.283-.1,2.383,2.383,0,0,0-.732,1.029l.161-.081c.052-.017.037-.02.094-.015.083.007.063.012.1.035a2.219,2.219,0,0,1-.356.93l.482-.145c-.141.338-.215,1.212-.478,1.388.515.02.534-.364.746-.5.153.438-.3.929-.532,1.178,1.159.042,1.544-.734,1.613-1.745a2.707,2.707,0,0,1-.772,2.379c-.6.731-1.888.953-2.734,1.871a2.293,2.293,0,0,0-.223.285c-1.161.026-1.588,1.332-1.833,1.42-.09.032-.081,0-.194.053-.826.363-1.289,2.377-1.515,2.87-.309.674-.61.676-1.105,1.063a2.135,2.135,0,0,0,1.615-.65c-.247.9-1.709.869-1.464,1.731.96-1.235,2.889-.262,3.453-3.2a4.54,4.54,0,0,1,.745-2.1c.065,1.036.781,2.046.528,2.747-.156.432-.533.663-.614.971-.06.223.022.209.019.365-.007.32-.121.356-.053.773.048.293.237,1.476-.087,1.562-.239.592.112.38,0,1.044l1.36.42c.054-.854-.443-.8-.357-2.113.042-.639.02-1.48.347-1.772,1.619-1.455,3.732-2.475.977-4.288l-.031-.029c.341.188.81.233,1.189.766a11.573,11.573,0,0,1,1-.6,10.866,10.866,0,0,0,2.065-1.462,16.744,16.744,0,0,0,1.169-1.336,3.814,3.814,0,0,1,1.617-.5,1.419,1.419,0,0,1,0,.993c-.068.292-.431.38-.7.451-.36.093-.184.174-.239.234-.074.081-.307-.061-.466.039-.338.211-.173.739-.1.946a.759.759,0,0,0,.486-.227c.354-.282.28-.071.512-.213.187-.115.6-.63.853-.83C31.024,14.483,30.663,14.162,30.746,13.147ZM28.4,7.6a.132.132,0,1,1-.132.132A.132.132,0,0,1,28.4,7.6Z" transform="translate(-15.936 -6.034)" fill="none" stroke="#26aee4" stroke-width="0.5"/>
</svg>
