<svg xmlns="http://www.w3.org/2000/svg" width="15.282" height="12.536" viewBox="0 0 15.282 12.536">
  <g id="Group_582" data-name="Group 582" transform="translate(0 -9)">
    <path id="Path_1232" data-name="Path 1232" d="M.478,19.626H2.965a.239.239,0,0,0,.239-.239v-.836h.378v.836a.239.239,0,0,0,.239.239h.815V20.1H4.159a.635.635,0,0,0-.634.634v.56a.239.239,0,0,0,.239.239h8A.239.239,0,0,0,12,21.3v-.56a.635.635,0,0,0-.636-.634h-.478v-.478h.537a1.475,1.475,0,0,0,1.47-1.472V14.293a1.475,1.475,0,0,0-1.472-1.472h-7.6a.239.239,0,0,0-.239.239V13.9H3.2v-.836a.239.239,0,0,0-.239-.239H2.746V12.1a.478.478,0,0,0-.358-.461V10.194a.239.239,0,0,0-.478,0v1.433H1.433V9.239a.239.239,0,1,0-.478,0v2.4A.478.478,0,0,0,.6,12.1v.716H.478A.478.478,0,0,0,0,13.3v5.85A.478.478,0,0,0,.478,19.626Zm10.888.955a.156.156,0,0,1,.156.156v.321H4v-.321a.156.156,0,0,1,.156-.156ZM5.115,20.1v-.478h5.293V20.1ZM4.059,13.3h7.363a1,1,0,0,1,.995.995v3.861a1,1,0,0,1-.995.995H4.059ZM3.2,14.373h.378v3.7H3.2ZM1.075,12.1H2.268v.716H1.075ZM.478,13.3H2.726v5.85H.478Z" transform="translate(0 0)" fill="#26aee4"/>
    <path id="Path_1233" data-name="Path 1233" d="M114.478,58.133V55.119a.239.239,0,0,0-.478,0v3.015a.239.239,0,0,0,.478,0Z" transform="translate(-100.389 -40.402)" fill="#26aee4"/>
    <path id="Path_1234" data-name="Path 1234" d="M124.239,62.25a.239.239,0,0,0-.239.239v1.254a.239.239,0,1,0,.478,0V62.489A.239.239,0,0,0,124.239,62.25Z" transform="translate(-109.195 -46.892)" fill="#26aee4"/>
    <path id="Path_1235" data-name="Path 1235" d="M50.051,52.5H44.659a.239.239,0,1,0,0,.478h5.392a.239.239,0,0,0,0-.478Z" transform="translate(-39.117 -38.306)" fill="#26aee4"/>
    <path id="Path_1236" data-name="Path 1236" d="M50.051,62.5H44.659a.239.239,0,1,0,0,.478h5.392a.239.239,0,0,0,0-.478Z" transform="translate(-39.117 -47.112)" fill="#26aee4"/>
    <path id="Path_1237" data-name="Path 1237" d="M50.051,72.5H44.659a.239.239,0,1,0,0,.478h5.392a.239.239,0,0,0,0-.478Z" transform="translate(-39.117 -55.918)" fill="#26aee4"/>
    <path id="Path_1238" data-name="Path 1238" d="M50.051,82.5H44.659a.239.239,0,1,0,0,.478h5.392a.239.239,0,0,0,0-.478Z" transform="translate(-39.117 -64.725)" fill="#26aee4"/>
    <path id="Path_1239" data-name="Path 1239" d="M43.953,19.043a.732.732,0,0,0,0-1.463h-4.6a.731.731,0,0,0,0,1.463h.975V19.5H40.1a.239.239,0,1,0,0,.478h3.1a.239.239,0,1,0,0-.478h-.248v-.457Zm-1.472.458H40.809v-.458h1.672Zm-3.125-.936a.254.254,0,0,1,0-.507h4.6a.254.254,0,1,1,0,.507Z" transform="translate(-34.013 -7.556)" fill="#26aee4"/>
  </g>
</svg>
