<svg xmlns="http://www.w3.org/2000/svg" width="29.314" height="14.657" viewBox="0 0 29.314 14.657"><g transform="translate(0 -128)"><path d="M220.051,174.331h-6.107a.611.611,0,0,1-.611-.611v-2.443a.611.611,0,0,1,1.221,0v1.832h5.5a.611.611,0,0,1,0,1.221Z" transform="translate(-201.119 -40.224)" fill="#999"/><path d="M345,263.329a3.664,3.664,0,1,1,3.664-3.664A3.669,3.669,0,0,1,345,263.329Zm0-6.107a2.443,2.443,0,1,0,2.443,2.443A2.445,2.445,0,0,0,345,257.221Z" transform="translate(-321.79 -120.671)" fill="#999"/><path d="M25,263.329a3.664,3.664,0,1,1,3.664-3.664A3.669,3.669,0,0,1,25,263.329Zm0-6.107a2.443,2.443,0,1,0,2.443,2.443A2.445,2.445,0,0,0,25,257.221Z" transform="translate(-20.112 -120.671)" fill="#999"/><path d="M140.825,321.221H128.611a.611.611,0,1,1,0-1.221h12.214a.611.611,0,1,1,0,1.221Z" transform="translate(-120.671 -181.007)" fill="#999"/><path d="M27.482,140.214H26.261a.611.611,0,1,1,0-1.221h1.221c.14-.016.611-.292.611-.611v-2.443c-.009-.518-1.535-3.054-5.5-3.054a.61.61,0,0,1-.4-.15A17.349,17.349,0,0,0,11.6,129.221,18.184,18.184,0,0,0,5.056,130.4a.593.593,0,0,1-.235.048H3.306l.032.032a.61.61,0,0,1-.068.922,4.65,4.65,0,0,0-2.048,3.932c0,3.326.606,3.663.611,3.664a.611.611,0,1,1,0,1.221C.189,140.214,0,137.426,0,135.329a5.773,5.773,0,0,1,2-4.468l-.6-.6a.611.611,0,0,1,.432-1.043H4.7A19.562,19.562,0,0,1,11.6,128a18.481,18.481,0,0,1,11.215,3.667c4.5.1,6.5,3.115,6.5,4.273v2.443A1.991,1.991,0,0,1,27.482,140.214Z" transform="translate(0)" fill="#999"/></g></svg>