<svg xmlns="http://www.w3.org/2000/svg" width="23.638" height="13.85" viewBox="0 0 23.638 13.85"><g transform="translate(-384 -452)"><path d="M630.923,652.462a.462.462,0,1,1-.462-.462.462.462,0,0,1,.462.462Zm0,0" transform="translate(-234.643 -190.766)" fill="#999"/><path d="M748.54,514.77a2.77,2.77,0,1,0-2.77,2.77,2.773,2.773,0,0,0,2.77-2.77Zm-2.77,1.847a1.847,1.847,0,1,1,1.847-1.847,1.849,1.849,0,0,1-1.847,1.847Zm0,0" transform="translate(-342.426 -57.23)" fill="#999"/><path d="M403.344,612.923a4.512,4.512,0,0,0-3.114,1.266,5.539,5.539,0,0,0-8.823,0,4.513,4.513,0,0,0-3.114-1.266A4.283,4.283,0,0,0,384,617.079V618a.462.462,0,0,0,.462.462h22.715a.462.462,0,0,0,.462-.462v-.923a4.283,4.283,0,0,0-4.294-4.155Zm-18.421,4.155a3.347,3.347,0,0,1,3.37-3.232,3.525,3.525,0,0,1,2.6,1.147,5.54,5.54,0,0,0-.619,2.546h-5.355Zm10.9-4.155a4.616,4.616,0,0,1,4.617,4.617H391.2a4.621,4.621,0,0,1,4.617-4.617Zm10.9,4.617h-5.355a5.541,5.541,0,0,0-.619-2.546,3.525,3.525,0,0,1,2.6-1.147,3.347,3.347,0,0,1,3.37,3.232Zm0,0" transform="translate(0 -152.613)" fill="#999"/><path d="M422.54,514.77a2.77,2.77,0,1,0-2.77,2.77,2.773,2.773,0,0,0,2.77-2.77Zm-2.77,1.847a1.847,1.847,0,1,1,1.847-1.847,1.849,1.849,0,0,1-1.847,1.847Zm0,0" transform="translate(-31.476 -57.23)" fill="#999"/><path d="M567.387,455.693a3.693,3.693,0,1,0-3.693,3.693,3.7,3.7,0,0,0,3.693-3.693Zm-3.693,2.77a2.77,2.77,0,1,1,2.77-2.77,2.773,2.773,0,0,1-2.77,2.77Zm0,0" transform="translate(-167.874)" fill="#999"/><path d="M669.043,663.525a.462.462,0,0,0-.507.772,2.786,2.786,0,0,1,.987,1.13.462.462,0,0,0,.834-.4,3.707,3.707,0,0,0-1.313-1.505Zm0,0" transform="translate(-271.201 -201.687)" fill="#999"/></g></svg>