<svg xmlns="http://www.w3.org/2000/svg" width="17.857" height="19.59" viewBox="0 0 17.857 19.59"><g transform="translate(0.002 22)"><path d="M8.927,0a6.249,6.249,0,0,1,6.249,6.25c0,3.357.316,4.411,2.416,6.512a.893.893,0,0,1-.631,1.524H12.006l.045.446a3.124,3.124,0,1,1-6.249,0l.045-.446H.892a.893.893,0,0,1-.631-1.524,7.657,7.657,0,0,0,2.119-3.2,10.559,10.559,0,0,0,.3-3.315A6.249,6.249,0,0,1,8.927,0Zm0,.893A5.357,5.357,0,0,0,3.571,6.25c0,2.679,0,4.464-2.678,7.143H16.961c-2.678-2.679-2.678-4.464-2.678-7.143A5.357,5.357,0,0,0,8.927.893Zm2.187,13.393H6.74l-.045.446a2.232,2.232,0,1,0,4.464,0Z" transform="translate(0 -20.268)" fill="#999"/><circle cx="1" cy="1" r="1" transform="translate(7.998 -22)" fill="#999"/></g></svg>