<svg xmlns="http://www.w3.org/2000/svg" width="16.554" height="16.554" viewBox="0 0 16.554 16.554"><g transform="translate(-3 -2.999)"><path d="M4.408,3A1.416,1.416,0,0,0,3,4.407v13.74a1.414,1.414,0,0,0,1.408,1.406H18.146a1.414,1.414,0,0,0,1.408-1.406V4.407A1.416,1.416,0,0,0,18.146,3Zm0,.922H18.146a.477.477,0,0,1,.488.487v13.74a.477.477,0,0,1-.488.487H4.408a.477.477,0,0,1-.488-.487V4.407A.477.477,0,0,1,4.408,3.921Z" fill="#999"/><path d="M11.46,6a.46.46,0,0,0-.46.46V9.218a.46.46,0,0,0,.46.46h5.518a.46.46,0,0,0,.46-.46V6.459a.46.46,0,0,0-.46-.46Zm.46.92h4.6V8.758h-4.6Z" transform="translate(-0.643 -0.241)" fill="#999"/><path d="M11.46,11a.46.46,0,0,0-.46.46v2.759a.46.46,0,0,0,.46.46h5.518a.46.46,0,0,0,.46-.46V11.459a.46.46,0,0,0-.46-.46Zm.46.92h4.6v1.839h-4.6Z" transform="translate(-0.643 -0.643)" fill="#999"/><path d="M6,7v.92H8.759V7Z" transform="translate(-0.241 -0.321)" fill="#999"/><path d="M6,12v.92H8.759V12Z" transform="translate(-0.241 -0.723)" fill="#999"/><path d="M6,17v.92H16.942V17Z" transform="translate(-0.241 -1.125)" fill="#999"/></g></svg>