<svg xmlns="http://www.w3.org/2000/svg" width="139.304" height="77.391" viewBox="0 0 139.304 77.391">
  <g id="Group_1359" data-name="Group 1359" transform="translate(-0.598 -31.802)" opacity="0.66" style="mix-blend-mode: multiply;isolation: isolate">
    <path id="Path_1447" data-name="Path 1447" d="M45.953,66.038a25.637,25.637,0,0,0-5.669-20.527,21.69,21.69,0,0,0-33.693,0A25.637,25.637,0,0,0,.921,66.038c1.828,11.029,11.927,13.048,14.237,13.37a13.2,13.2,0,0,0,2.405,1.273c-.421,1.544-1.3,1.975-3.1,2.809-.714.329-1.523.707-2.4,1.214A22.589,22.589,0,0,0,4.4,91.318,3.962,3.962,0,0,0,3.5,94.61a5.039,5.039,0,0,0,2.833,3.072c3.365,1.8,10.684,3.654,17.1,3.654s13.739-1.862,17.1-3.657a5.038,5.038,0,0,0,2.834-3.072,3.962,3.962,0,0,0-.908-3.292A22.6,22.6,0,0,0,34.807,84.7c-.878-.507-1.689-.878-2.4-1.214-1.8-.836-2.679-1.266-3.1-2.82a13.141,13.141,0,0,0,2.4-1.276C34.031,79.074,44.126,77.058,45.953,66.038ZM26.13,81.536a6.274,6.274,0,0,0,1.815,3.107,15.381,15.381,0,0,1-4.556.534,15.125,15.125,0,0,1-4.456-.542,6.275,6.275,0,0,0,1.806-3.094,17.117,17.117,0,0,0,2.688.249A17.173,17.173,0,0,0,26.13,81.536Zm.283-3.4a15.8,15.8,0,0,1-2.986.364,15.786,15.786,0,0,1-3-.364c-5.518-1.15-8.01-6.736-8.643-8.421A23.627,23.627,0,0,1,10.669,62.1C14.767,59.19,20.688,58.4,23.4,58.4h.053c2.7,0,8.626.789,12.721,3.693a23.637,23.637,0,0,1-1.118,7.618C34.423,71.4,31.93,76.985,26.413,78.135Z" transform="translate(0 0.552)" fill="#00213b"/>
    <path id="Path_1448" data-name="Path 1448" d="M92.331,73.481c.315-5.67.612-11.027.6-15.142-.018-10.2-5.941-20-14.742-24.369a20.169,20.169,0,0,0-21.556,2.141C52.365,37.442,48.8,41.26,46.31,47.176c-3.8,9.028-2.808,19.735-1.853,30.081.64,6.943,1.295,14.117.493,20.654a4.3,4.3,0,0,0-.768,3.292c.4,1.8,2.074,2.88,3.3,3.532,4.106,2.194,13.044,4.458,20.892,4.458,7.825,0,16.748-2.266,20.855-4.458,1.225-.652,2.9-1.729,3.292-3.532a4.28,4.28,0,0,0-.746-3.262C91.345,91.3,91.868,81.845,92.331,73.481Zm-27.587,11.5A13.484,13.484,0,0,0,71.861,85c.957,3.706,3.334,4.77,5.836,5.883.447.2.9.4,1.367.625a26.443,26.443,0,0,1-10.731,1.854,25.1,25.1,0,0,1-10.6-1.9c.41-.2.814-.383,1.207-.562C61.427,89.779,63.79,88.7,64.743,84.977ZM55.267,71.591A35.43,35.43,0,0,1,54.06,60.874c.388-5.822,2.205-10.643,4.626-12.271a3.118,3.118,0,0,1,1.769-.576,3.38,3.38,0,0,1,1.06.18,1.647,1.647,0,0,0,1.366-.155c2.734-1.655,3.687-.7,6.9,3.225a41.312,41.312,0,0,0,6.9,7.035,12.941,12.941,0,0,1,4.79,13.152s-.121.492-.172.673a14.246,14.246,0,0,1-8.584,9.2,13.725,13.725,0,0,1-4.364.843A13.719,13.719,0,0,1,64,81.34a14.2,14.2,0,0,1-8.729-9.753Z" transform="translate(4.179)" fill="#00213b"/>
    <path id="Path_1449" data-name="Path 1449" d="M130.264,93.568a23.662,23.662,0,0,0-8.01-6.912l-.569-.329c-3-1.717-4.937-2.841-5.607-5.758a16.259,16.259,0,0,0,8.119-9.256,6.642,6.642,0,0,0,5.413-9.053,4.567,4.567,0,0,0-1.407-1.723c2.754-17.684-5.809-22.144-12.568-23.948-4.982-1.329-15.81-.834-18.254,6.346a.424.424,0,0,1-.137.211c-5.193,3.42-6.555,8.367-4.73,17.425a4.56,4.56,0,0,0-1.366,1.688,6.639,6.639,0,0,0,5.41,9.052,16.254,16.254,0,0,0,8.119,9.257c-.673,2.907-2.6,4.029-5.6,5.744l-.595.341a23.651,23.651,0,0,0-8.01,6.912,4.073,4.073,0,0,0-.936,3.381,5.206,5.206,0,0,0,2.931,3.171c3.523,1.88,11.182,3.824,17.9,3.824s14.379-1.944,17.9-3.824a5.2,5.2,0,0,0,2.931-3.171A4.08,4.08,0,0,0,130.264,93.568ZM110.38,82.082a10.914,10.914,0,0,0,2.589-.352,9.193,9.193,0,0,0,1.912,3.656,13.453,13.453,0,0,1-9.027.019,9.177,9.177,0,0,0,1.934-3.675A10.867,10.867,0,0,0,110.38,82.082ZM99.312,69.077c-.057-.239-.272-1.646-.482-3.481a1.646,1.646,0,0,0-3.278.3c0,.025.005.049.009.075.066.58.145,1.219.219,1.815a3.584,3.584,0,0,1-1.6-1.887,3.012,3.012,0,0,1-.055-2.246,1.3,1.3,0,0,1,.787-.708,3.306,3.306,0,0,1,.981-.153,2.7,2.7,0,0,0,2.65-2.35c.526-3.909,2.789-9.887,5.138-10.357a3.226,3.226,0,0,0,1.7-.968c1.139-1.207,4.254-1.944,7.075-1.131a6.994,6.994,0,0,1,5.077,5.767c.072.36.116.752.165,1.163.263,2.231.658,5.6,4.953,7.571a3.631,3.631,0,0,0,1.817.316,3.575,3.575,0,0,1,1.37.145,1.287,1.287,0,0,1,.776.7,3.012,3.012,0,0,1-.053,2.244,3.6,3.6,0,0,1-1.6,1.893c.071-.537.142-1.1.2-1.616a1.646,1.646,0,0,0-3.271-.38h0c-.2,1.756-.4,3.057-.455,3.277a12.853,12.853,0,0,1-7.818,9.007,7.745,7.745,0,0,1-6.515,0A12.843,12.843,0,0,1,99.312,69.077Z" transform="translate(8.64 0.409)" fill="#00213b"/>
  </g>
</svg>
