<svg xmlns="http://www.w3.org/2000/svg" width="15.001" height="15" viewBox="0 0 15.001 15">
  <g id="Group_586" data-name="Group 586" transform="translate(-2 -2)">
    <path id="Path_1243" data-name="Path 1243" d="M16.85,7.275l-1.5-.75c-.025-.025-.05-.025-.1-.025H14a.236.236,0,0,0-.25-.25h-.575A2.678,2.678,0,0,0,10.5,8.925V11a.236.236,0,0,0,.25.25H11V12a1.749,1.749,0,0,1-1.5,1.725V2.25A.236.236,0,0,0,9.25,2H2.75a.236.236,0,0,0-.25.25V15.5H2.25a.236.236,0,0,0-.25.25v1a.236.236,0,0,0,.25.25h7.5a.236.236,0,0,0,.25-.25v-1a.236.236,0,0,0-.25-.25H9.5V14.225A2.246,2.246,0,0,0,11.5,12v-.75h2.25A.236.236,0,0,0,14,11V8h1.2l1.45.725c.025.025.05.025.1.025a.187.187,0,0,0,.125-.025A.263.263,0,0,0,17,8.5v-1A.24.24,0,0,0,16.85,7.275ZM9.5,16.5h-7V16h7ZM3,15.5V2.5H9v13Zm8-6.575A2.177,2.177,0,0,1,13.175,6.75H13.5v1.5H12.25a.309.309,0,0,0-.2.1l-.5.75a.355.355,0,0,0-.05.15v1.5H11ZM12.525,10.1l.325.65H12V9.325l.375-.575H12.5V10C12.5,10.05,12.5,10.075,12.525,10.1Zm.875.65-.4-.8V8.75h.5v2ZM16.5,8.1l-1.15-.575c-.025-.025-.05-.025-.1-.025H14V7h1.2l1.3.65Z" fill="#26aee4"/>
    <path id="Path_1244" data-name="Path 1244" d="M53.022,34.163c-.15.275-1.5,2.725-.85,3.85a1.363,1.363,0,0,0,2.15,0c.65-1.1-.7-3.575-.85-3.85A.281.281,0,0,0,53.022,34.163Zm.875,3.6c-.05.075-.175.275-.65.275s-.6-.2-.65-.275c-.325-.575.15-1.95.65-2.925C53.722,35.813,54.222,37.188,53.9,37.763Z" transform="translate(-37.497 -24.038)" fill="#26aee4"/>
    <path id="Path_1245" data-name="Path 1245" d="M12.75,6H8.25A.236.236,0,0,0,8,6.25v3a.236.236,0,0,0,.25.25h4.5A.236.236,0,0,0,13,9.25v-3A.236.236,0,0,0,12.75,6ZM12.5,9h-4V6.5h4Z" transform="translate(-4.5 -3)" fill="#26aee4"/>
    <rect id="Rectangle_153" data-name="Rectangle 153" width="4" height="1" transform="translate(4 7)" fill="#26aee4"/>
    <path id="Path_1246" data-name="Path 1246" d="M15.212,30.3h-1.55l1-1.625-.425-.275-1.25,2a.227.227,0,0,0,0,.25.263.263,0,0,0,.225.125h1.55l-1,1.625.425.275,1.25-2a.227.227,0,0,0,0-.25A.263.263,0,0,0,15.212,30.3Z" transform="translate(-8.212 -19.8)" fill="#26aee4"/>
  </g>
</svg>
