<svg xmlns="http://www.w3.org/2000/svg" width="13.373" height="13.373" viewBox="0 0 13.373 13.373">
  <g id="Group_613" data-name="Group 613" transform="translate(-13.006 -13.13)">
    <path id="Path_1283" data-name="Path 1283" d="M19.69,13.13a6.686,6.686,0,1,1-4.727,1.959A6.686,6.686,0,0,1,19.69,13.13ZM24.1,15.415a6.225,6.225,0,1,0,1.81,4.4A6.225,6.225,0,0,0,24.1,15.415Z" transform="translate(0 0)" fill="#26aee4"/>
    <path id="Path_1284" data-name="Path 1284" d="M24.078,19.84A4.356,4.356,0,1,1,21,21.116a4.356,4.356,0,0,1,3.08-1.276Zm2.754,1.6A3.895,3.895,0,1,0,27.969,24.2,3.895,3.895,0,0,0,26.832,21.442Z" transform="translate(-4.387 -4.383)" fill="#26aee4"/>
    <path id="Path_1285" data-name="Path 1285" d="M24.985,20.222a4.247,4.247,0,0,1,.929.267h0a4.257,4.257,0,0,1,.846.472l.208.149-.17.191a11.253,11.253,0,0,0-1.186,1.533,1.736,1.736,0,0,0-.274.538,1.711,1.711,0,0,0,.538-.274,11.254,11.254,0,0,0,1.533-1.186l.191-.17.149.208a4.292,4.292,0,0,1,.472.846h0a4.219,4.219,0,0,1,.267.933l.042.253h-.257a11.234,11.234,0,0,0-1.925.243,1.681,1.681,0,0,0-.576.187,1.681,1.681,0,0,0,.576.187,11.234,11.234,0,0,0,1.925.243h.257l-.042.253a4.246,4.246,0,0,1-.267.929h0a4.292,4.292,0,0,1-.472.846l-.149.208-.191-.17a11.254,11.254,0,0,0-1.533-1.186,1.736,1.736,0,0,0-.538-.274,1.738,1.738,0,0,0,.274.565A11.253,11.253,0,0,0,26.8,27.546l.17.2-.208.149a4.277,4.277,0,0,1-.832.454h0a4.237,4.237,0,0,1-.933.267l-.253.042V28.4a11.234,11.234,0,0,0-.243-1.925,1.679,1.679,0,0,0-.187-.576,1.681,1.681,0,0,0-.187.576,11.234,11.234,0,0,0-.243,1.925v.257l-.253-.042a4.246,4.246,0,0,1-.929-.267h0a4.274,4.274,0,0,1-.846-.472l-.246-.132.16-.208a11.225,11.225,0,0,0,1.2-1.526,1.707,1.707,0,0,0,.274-.538,1.736,1.736,0,0,0-.538.274,11.253,11.253,0,0,0-1.533,1.186l-.191.17L20.83,26.9a4.274,4.274,0,0,1-.472-.846h0a4.238,4.238,0,0,1-.267-.933l-.042-.253h.257a11.234,11.234,0,0,0,1.925-.243,1.687,1.687,0,0,0,.576-.2,1.681,1.681,0,0,0-.576-.187,11.234,11.234,0,0,0-1.925-.243H20.05l.042-.253a4.247,4.247,0,0,1,.267-.929h0a4.292,4.292,0,0,1,.472-.846l.149-.208.191.17A11.253,11.253,0,0,0,22.7,23.107a1.736,1.736,0,0,0,.538.274,1.736,1.736,0,0,0-.274-.538,11.252,11.252,0,0,0-1.2-1.543l-.17-.191.208-.149a4.257,4.257,0,0,1,.846-.472h0a4.247,4.247,0,0,1,.929-.267l.267-.042v.257a11.234,11.234,0,0,0,.243,1.925,1.681,1.681,0,0,0,.187.576,1.679,1.679,0,0,0,.187-.576,11.234,11.234,0,0,0,.243-1.925V20.18l.253.042h.024Zm.756.694a3.772,3.772,0,0,0-.579-.187,10.9,10.9,0,0,1-.239,1.734c-.142.583-.347.929-.635.929s-.492-.347-.635-.929a10.9,10.9,0,0,1-.239-1.734,3.772,3.772,0,0,0-.579.187h0a3.81,3.81,0,0,0-.544.277,10.949,10.949,0,0,1,1.061,1.387c.312.513.4.909.208,1.1s-.593.1-1.1-.208a10.949,10.949,0,0,1-1.387-1.061,3.81,3.81,0,0,0-.277.544h0a3.811,3.811,0,0,0-.187.579,10.909,10.909,0,0,1,1.734.239c.583.142.929.347.929.635s-.347.492-.929.635a10.9,10.9,0,0,1-1.734.239,3.773,3.773,0,0,0,.187.579h0a3.722,3.722,0,0,0,.277.544,10.949,10.949,0,0,1,1.387-1.061c.513-.312.909-.4,1.1-.208s.1.593-.208,1.1a10.949,10.949,0,0,1-1.061,1.387,3.81,3.81,0,0,0,.544.277h0a3.772,3.772,0,0,0,.579.187,10.9,10.9,0,0,1,.239-1.734c.142-.583.347-.929.635-.929s.492.347.635.929a10.9,10.9,0,0,1,.239,1.734,3.772,3.772,0,0,0,.579-.187h0a3.739,3.739,0,0,0,.544-.277,10.951,10.951,0,0,1-1.065-1.387c-.312-.513-.4-.909-.208-1.1s.593-.1,1.1.208A10.949,10.949,0,0,1,27.5,26.409a3.81,3.81,0,0,0,.277-.544h0a3.811,3.811,0,0,0,.187-.579,10.909,10.909,0,0,1-1.734-.239c-.583-.142-.929-.347-.929-.635s.347-.492.929-.635a10.9,10.9,0,0,1,1.734-.239,3.773,3.773,0,0,0-.187-.579h0a3.671,3.671,0,0,0-.277-.544,10.949,10.949,0,0,1-1.387,1.061c-.513.312-.909.4-1.1.208s-.1-.593.208-1.1a10.95,10.95,0,0,1,1.061-1.387,3.81,3.81,0,0,0-.544-.277h0Z" transform="translate(-4.601 -4.605)" fill="#26aee4"/>
    <path id="Path_1286" data-name="Path 1286" d="M42.07,18.877a.229.229,0,1,1,.284-.347,6.044,6.044,0,0,1,.773.725h0a6.069,6.069,0,0,1,.624.839.23.23,0,1,1-.392.243,5.567,5.567,0,0,0-.576-.773h0A5.618,5.618,0,0,0,42.07,18.877Z" transform="translate(-18.905 -3.472)" fill="#26aee4"/>
    <path id="Path_1287" data-name="Path 1287" d="M38.038,16.536a.23.23,0,1,1,.17-.427l.243.1.239.114a.237.237,0,0,1-.2.427h0l-.208-.121Z" transform="translate(-16.256 -1.935)" fill="#26aee4"/>
    <path id="Path_1288" data-name="Path 1288" d="M31.411,31.07a.461.461,0,1,1-.461.461.461.461,0,0,1,.461-.461Z" transform="translate(-11.721 -11.718)" fill="#26aee4"/>
  </g>
</svg>
