<svg xmlns="http://www.w3.org/2000/svg" width="12.54" height="16.501" viewBox="0 0 12.54 16.501">
  <g id="Group_588" data-name="Group 588" transform="translate(-9 -2.999)">
    <path id="Path_1249" data-name="Path 1249" d="M41.98,19.5l.035,0a.33.33,0,0,0,.294-.362L40.658,3.3A.33.33,0,1,0,40,3.364l1.65,15.84A.329.329,0,0,0,41.98,19.5Z" transform="translate(-20.77 0)" fill="#26aee4"/>
    <path id="Path_1250" data-name="Path 1250" d="M9.331,19.5a.329.329,0,0,0,.328-.3l1.65-15.84a.33.33,0,1,0-.656-.068L9,19.136A.33.33,0,0,0,9.3,19.5Z" fill="#26aee4"/>
    <path id="Path_1251" data-name="Path 1251" d="M27.33,9.64a.33.33,0,0,0,.33-.33V7.33a.33.33,0,1,0-.66,0V9.31A.33.33,0,0,0,27.33,9.64Z" transform="translate(-12.06 -2.68)" fill="#26aee4"/>
    <path id="Path_1252" data-name="Path 1252" d="M27,20.31a.33.33,0,1,0,.66,0V18.33a.33.33,0,1,0-.66,0Z" transform="translate(-12.06 -10.05)" fill="#26aee4"/>
    <path id="Path_1253" data-name="Path 1253" d="M27,29.66v1.98a.33.33,0,1,0,.66,0V29.33a.33.33,0,1,0-.66,0Z" transform="translate(-12.06 -17.42)" fill="#26aee4"/>
    <path id="Path_1254" data-name="Path 1254" d="M27,43.31a.33.33,0,1,0,.66,0V41.33a.33.33,0,1,0-.66,0Z" transform="translate(-12.06 -25.46)" fill="#26aee4"/>
  </g>
</svg>
