<svg xmlns="http://www.w3.org/2000/svg" width="11.531" height="15.677" viewBox="0 0 11.531 15.677">
  <g id="Group_618" data-name="Group 618" transform="translate(-20.018 -4.1)">
    <g id="Group_617" data-name="Group 617" transform="translate(20.018 4.1)">
      <path id="Path_1290" data-name="Path 1290" d="M20.042,17.42a2.252,2.252,0,0,0,.6,1.126,4.628,4.628,0,0,0,1.493,1.2.2.2,0,0,0,.118.026h7.112a.1.1,0,0,0,.065-.026,5,5,0,0,0,1.493-1.2,2.3,2.3,0,0,0,.6-1.126c.1-.694-.183-1.742-.969-1.951-.079-.733-.131-1.244-.144-1.532-.013-.157-.026-.327-.052-.485s-.052-.327-.079-.485q-.02-.118-.039-.2v-.026a11.619,11.619,0,0,1-.079-3.025,1.98,1.98,0,0,0-.485-1.467,1.3,1.3,0,0,0-.943-.432h-1.4V7.283h.354a.779.779,0,0,0,.589-.262.551.551,0,0,0,.118-.485l-.458-1.925a.7.7,0,0,0-.707-.511H24.39a.7.7,0,0,0-.707.511l-.419,1.925a.551.551,0,0,0,.118.485.736.736,0,0,0,.589.262h.354V7.82h-1.3a1.324,1.324,0,0,0-.878.419,1.918,1.918,0,0,0-.485,1.441,7.94,7.94,0,0,1-.223,2.777l-.013.039c-.026.1-.065.223-.1.367-.118.445-.183.786-.2.851a6.788,6.788,0,0,0,0,1.716H21.09A1.745,1.745,0,0,0,20.042,17.42Zm1,.8a1.666,1.666,0,0,1-.485-.864c-.079-.511.131-1.284.655-1.388a1.066,1.066,0,0,1,1.048.589V19.24A4.6,4.6,0,0,1,21.037,18.219Zm7.806,1.048H22.779V16.7a.1.1,0,0,0,.026-.065H28.83v2.633Zm-5.3-7.217H28.07v4.073H23.539ZM31,17.341a1.876,1.876,0,0,1-.485.864,4.175,4.175,0,0,1-1.153.982V16.621a1.127,1.127,0,0,1,.878-.668c.026,0,.039.013.065.013h.052C30.86,16.045,31.083,16.857,31,17.341ZM28.712,8.357a.736.736,0,0,1,.55.262A1.422,1.422,0,0,1,29.6,9.693a12.118,12.118,0,0,0,.092,3.183V12.9a1.392,1.392,0,0,1,.039.183c.026.144.052.3.079.445a2.558,2.558,0,0,1,.039.445c.013.275.065.786.144,1.48a1.639,1.639,0,0,0-.956.668h-.458V8.357Zm-4.925-1.65a.1.1,0,0,1-.013-.039l.419-1.925a.2.2,0,0,1,.2-.1h2.855c.118,0,.183.052.2.1l.419,1.925a.065.065,0,0,1-.013.039.218.218,0,0,1-.183.065H23.958A.231.231,0,0,1,23.788,6.706Zm1.048.589h1.938v.537H24.835Zm3.248,1.061v3.17H23.539V8.357Zm-6.431,5.448c.013-.065.065-.38.183-.8.039-.144.079-.249.092-.327l.013-.039a8.722,8.722,0,0,0,.236-2.96,1.416,1.416,0,0,1,.354-1.061.864.864,0,0,1,.5-.262V16.11h-.419a1.667,1.667,0,0,0-.943-.655A6.768,6.768,0,0,1,21.653,13.805Z" transform="translate(-20.018 -4.1)" fill="#26aee4"/>
    </g>
  </g>
</svg>
