<svg xmlns="http://www.w3.org/2000/svg" width="22.194" height="18.119" viewBox="0 0 22.194 18.119">
  <g id="Group_500" data-name="Group 500" transform="translate(-384 -313.253)">
    <path id="Path_812" data-name="Path 812" d="M406.194,314.092a10.992,10.992,0,0,1-2.241,6.683.867.867,0,0,1-1.383-1.046,9.363,9.363,0,1,0-14.947,0,.867.867,0,0,1-1.383,1.046,11.095,11.095,0,1,1,19.953-6.683Z" transform="translate(0 10.253)" fill="#07c5fa"/>
    <path id="Path_813" data-name="Path 813" d="M578.572,432.828a.867.867,0,0,0-1.226,0l-2.826,2.826a3.034,3.034,0,1,0,1.226,1.226l2.826-2.826A.867.867,0,0,0,578.572,432.828Zm-5.493,6.791a1.3,1.3,0,1,1,1.3-1.3A1.3,1.3,0,0,1,573.079,439.619Z" transform="translate(-177.982 -113.704)" fill="#07c5fa"/>
  </g>
</svg>
