<svg xmlns="http://www.w3.org/2000/svg" xmlns:xlink="http://www.w3.org/1999/xlink" width="35.752" height="27.146" viewBox="0 0 35.752 27.146">
  <defs>
    <linearGradient id="linear-gradient" x1="-2.791" y1="0.73" x2="3.513" y2="0.304" gradientUnits="objectBoundingBox">
      <stop offset="0.05" stop-color="#29abe2"/>
      <stop offset="1" stop-color="#00caff"/>
    </linearGradient>
    <linearGradient id="linear-gradient-2" x1="-0.613" y1="0.627" x2="1.852" y2="0.28" xlink:href="#linear-gradient"/>
  </defs>
  <path id="Path_101" data-name="Path 101" d="M329.243,777.587h-.02a2.858,2.858,0,0,0-1.615,5.218h0l.007,0,.05.032q.079.052.162.1l.077.042c.051.027.1.051.156.075l.073.033c.076.031.154.06.233.085l.035.01c.07.02.141.039.213.055l.08.015c.062.011.123.021.186.028l.078.009c.087.008.175.013.264.013h0c.091,0,.18-.005.269-.014h.023a2.833,2.833,0,0,0,.812-.207l.009,0c.049-.021.1-.046.144-.069s.072-.032.106-.051l.027-.016a2.858,2.858,0,0,0,1.168-3.775l8.564-14.676Z" transform="translate(-308.576 -756.159)" fill="url(#linear-gradient)"/>
  <path id="Path_102" data-name="Path 102" d="M310.189,745.623A21.769,21.769,0,0,0,288.4,756.37a20.247,20.247,0,0,0-2.62,12.147,24.693,24.693,0,0,1,4.064-11.248,22.708,22.708,0,0,1,20.18-9.948,23.631,23.631,0,0,1,5.859,1.083,26.423,26.423,0,0,1,5.539,2.535,19.6,19.6,0,0,0-5.147-3.526A20.889,20.889,0,0,0,310.189,745.623Z" transform="translate(-285.67 -745.427)" fill="url(#linear-gradient-2)"/>
</svg>
