<svg xmlns="http://www.w3.org/2000/svg" width="12.265" height="12.265" viewBox="0 0 12.265 12.265">
  <g id="Group_583" data-name="Group 583" transform="translate(62.833 -74.4)">
    <path id="Path_1240" data-name="Path 1240" d="M-56.7,74.4a6.132,6.132,0,0,0-6.132,6.132A6.132,6.132,0,0,0-56.7,86.665a6.132,6.132,0,0,0,6.132-6.132A6.147,6.147,0,0,0-56.7,74.4Zm0,11.676a5.528,5.528,0,0,1-5.528-5.528A5.528,5.528,0,0,1-56.7,75.019a5.528,5.528,0,0,1,5.528,5.513A5.543,5.543,0,0,1-56.7,86.06Z" transform="translate(0 0)" fill="#26aee4"/>
    <path id="Path_1241" data-name="Path 1241" d="M-45.579,87.5a4.154,4.154,0,0,0-4.154,4.154h.6A3.534,3.534,0,0,1-45.611,88.1a3.534,3.534,0,0,1,2.312.847l-1.722,1.722a1.133,1.133,0,0,0-1.545.423,1.133,1.133,0,0,0,.423,1.545,1.133,1.133,0,0,0,1.545-.423,1.133,1.133,0,0,0,0-1.122l1.722-1.722a3.519,3.519,0,0,1,.846,2.281h.6A4.154,4.154,0,0,0-45.579,87.5Zm0,4.667a.529.529,0,0,1-.528-.529.529.529,0,0,1,.529-.528.529.529,0,0,1,.529.529s0,.01,0,.015a.529.529,0,0,1-.529.529Z" transform="translate(-11.121 -11.121)" fill="#26aee4"/>
  </g>
</svg>
