<svg id="Group_590" data-name="Group 590" xmlns="http://www.w3.org/2000/svg" width="12.415" height="12.415" viewBox="0 0 12.415 12.415">
  <g id="Group_589" data-name="Group 589" transform="translate(0 0)">
    <path id="Path_1255" data-name="Path 1255" d="M6.243,12.415A6.208,6.208,0,1,0,0,6.243a6.192,6.192,0,0,0,6.243,6.172Zm0-.42A5.788,5.788,0,1,1,12,6.244,5.788,5.788,0,0,1,6.244,12Z" transform="translate(0 0)" fill="#26aee4"/>
    <path id="Path_1256" data-name="Path 1256" d="M10.386,42.945a5,5,0,0,0-.054.736,4.891,4.891,0,0,0,1.955,3.911.216.216,0,1,0,.26-.344,4.46,4.46,0,0,1-1.784-3.566,4.573,4.573,0,0,1,.049-.673.216.216,0,1,0-.427-.063Z" transform="translate(-9.049 -37.452)" fill="#26aee4"/>
    <path id="Path_1257" data-name="Path 1257" d="M21.036,12.7a4.964,4.964,0,0,0-8.956,1.087.216.216,0,0,0,.411.131,4.533,4.533,0,0,1,8.178-.992.216.216,0,1,0,.367-.226Z" transform="translate(-10.571 -9.049)" fill="#26aee4"/>
    <path id="Path_1258" data-name="Path 1258" d="M73.229,40.452a5.023,5.023,0,0,0,1.8-3.831,4.956,4.956,0,0,0-.348-1.831.216.216,0,0,0-.4.159,4.526,4.526,0,0,1,.318,1.672,4.592,4.592,0,0,1-1.649,3.5.216.216,0,1,0,.279.329Z" transform="translate(-63.827 -30.352)" fill="#26aee4"/>
    <path id="Path_1259" data-name="Path 1259" d="M50.542,50.765l-2.718-2.718a.252.252,0,1,0-.356.356l2.718,2.718a.252.252,0,1,0,.356-.356Z" transform="translate(-41.51 -42.017)" fill="#26aee4"/>
  </g>
</svg>
