<svg xmlns="http://www.w3.org/2000/svg" width="11.633" height="11.631" viewBox="0 0 11.633 11.631">
  <g id="Group_585" data-name="Group 585" transform="translate(26.411 -0.266)">
    <path id="Path_1242" data-name="Path 1242" d="M-25.636.266a.776.776,0,0,0-.775.775h0a.776.776,0,0,0,.775.775h0a.776.776,0,0,0,.775-.775h0a.776.776,0,0,0-.775-.775Zm5.041,0a.776.776,0,0,0-.775.775h0a.776.776,0,0,0,.775.775h0a.776.776,0,0,0,.775-.775h0a.776.776,0,0,0-.775-.775Zm5.04,0a.776.776,0,0,0-.775.775h0a.776.776,0,0,0,.775.775h0a.776.776,0,0,0,.777-.775h0a.776.776,0,0,0-.777-.775ZM-25.631,2.2h0a.389.389,0,0,0-.381.391V5.965a.4.4,0,0,0,0,.233V9.566a.389.389,0,0,0,.388.388.388.388,0,0,0,.388-.388v-3.1h4.253v3.1a.39.39,0,0,0,.38.4.388.388,0,0,0,.4-.38V6.469h4.266v3.1a.388.388,0,0,0,.4.38.387.387,0,0,0,.38-.38V2.6A.389.389,0,0,0-15.55,2.2h-.012a.387.387,0,0,0-.38.391v3.1h-4.266V2.6a.387.387,0,0,0-.384-.391h-.01a.389.389,0,0,0-.381.391v3.1h-4.253V2.6a.386.386,0,0,0-.382-.391Zm0,8.142a.776.776,0,0,0-.775.775h0a.776.776,0,0,0,.775.775h0a.776.776,0,0,0,.775-.775h0a.776.776,0,0,0-.775-.775Zm5.041,0a.776.776,0,0,0-.775.775h0a.776.776,0,0,0,.775.775h0a.776.776,0,0,0,.775-.775h0a.776.776,0,0,0-.775-.775Zm5.04,0a.776.776,0,0,0-.775.775h0a.776.776,0,0,0,.775.775h0a.776.776,0,0,0,.777-.775h0a.776.776,0,0,0-.777-.775Z" transform="translate(0 0)" fill="#26aee4"/>
  </g>
</svg>
